<svg id="Layer_1" data-name="Layer 1" xmlns="http://www.w3.org/2000/svg" xmlns:xlink="http://www.w3.org/1999/xlink" viewBox="0 0 111.67 246.45"><defs><style>.cls-1{font-size:4.35px;}.cls-1,.cls-11,.cls-9{font-family:ArialMT, Arial;}.cls-2{letter-spacing:-0.02em;}.cls-13,.cls-3{fill:none;}.cls-12,.cls-13,.cls-3,.cls-5{stroke:#000;stroke-miterlimit:10;}.cls-4{letter-spacing:-0.02em;}.cls-5{stroke-width:0.25px;}.cls-6{letter-spacing:-0.06em;}.cls-7{letter-spacing:-0.06em;}.cls-8{mask:url(#mask);}.cls-11,.cls-9{font-size:5.98px;}.cls-10{letter-spacing:-0.06em;}.cls-11{fill:#231f20;}.cls-12{stroke-width:0.5px;}.cls-13{stroke-width:0.75px;}.cls-14{mask:url(#mask-2);}.cls-15{filter:url(#luminosity-noclip-2);}.cls-16{filter:url(#luminosity-noclip);}</style><filter id="luminosity-noclip" x="40.87" y="-8588" width="26.93" height="32766" filterUnits="userSpaceOnUse" color-interpolation-filters="sRGB"><feFlood flood-color="#fff" result="bg"/><feBlend in="SourceGraphic" in2="bg"/></filter><mask id="mask" x="34.02" y="-8588" width="26.93" height="32766" maskUnits="userSpaceOnUse"><g class="cls-16"/></mask><filter id="luminosity-noclip-2" x="16.92" y="-8588" width="74.82" height="32766" filterUnits="userSpaceOnUse" color-interpolation-filters="sRGB"><feFlood flood-color="#fff" result="bg"/><feBlend in="SourceGraphic" in2="bg"/></filter><mask id="mask-2" x="10.07" y="-8588" width="74.82" height="32766" maskUnits="userSpaceOnUse"><g class="cls-15"/></mask></defs><text class="cls-1" transform="translate(69.45 108.34)">3-PH<tspan class="cls-2" x="9.91" y="0">P</tspan></text><line class="cls-3" x1="85.5" y1="106.83" x2="96.73" y2="106.8"/><polygon points="85.97 108.42 83.21 106.84 85.97 105.23 85.97 108.42"/><polygon points="96.27 108.4 99.03 106.8 96.26 105.21 96.27 108.4"/><line class="cls-3" x1="55.25" y1="106.83" x2="66.48" y2="106.8"/><polygon points="55.72 108.42 52.95 106.84 55.71 105.23 55.72 108.42"/><polygon points="66.02 108.4 68.77 106.8 66.01 105.21 66.02 108.4"/><text class="cls-1" transform="translate(39.5 12.61)">Glucose</text><text class="cls-1" transform="translate(43.17 28.56)">G6<tspan class="cls-4" x="5.8" y="0">P</tspan></text><text class="cls-1" transform="translate(43.54 44.52)">F6<tspan class="cls-4" x="5.08" y="0">P</tspan></text><text class="cls-1" transform="translate(40.27 60.47)">F1,6B<tspan class="cls-4" x="11.61" y="0">P</tspan></text><text class="cls-1" transform="translate(69.27 76.43)">DHA<tspan class="cls-4" x="9.19" y="0">P</tspan></text><text class="cls-1" transform="translate(43.17 76.43)">G3<tspan class="cls-4" x="5.8" y="0">P</tspan></text><text class="cls-1" transform="translate(98.25 124.29)">Serine</text><text class="cls-1" transform="translate(99.7 108.34)">3-PS</text><text class="cls-1" transform="translate(39.14 92.38)">1,3-BPG</text><text class="cls-1" transform="translate(43.13 108.34)">3PG</text><text class="cls-1" transform="translate(43.13 124.29)">2PG</text><text class="cls-1" transform="translate(43.17 140.25)">PE<tspan class="cls-4" x="5.8" y="0">P</tspan></text><text class="cls-1" transform="translate(38.9 156.19)">Pyruvate</text><text class="cls-1" transform="translate(97.4 156.19)">Lactate</text><line class="cls-3" y1="163.41" x2="97.91" y2="163.41"/><path class="cls-5" d="M87.89,204.17h-.11a33.78,33.78,0,0,1,.57,6.08v0a1.41,1.41,0,0,1,.31-.08,34.35,34.35,0,0,0-.57-6Z" transform="translate(-6.85)"/><path class="cls-5" d="M68.7,179.11a34.07,34.07,0,0,0-28.15-.29,1.71,1.71,0,0,1,.09.3,33.79,33.79,0,0,1,27.92.26C68.6,179.29,68.65,179.2,68.7,179.11Z" transform="translate(-6.85)"/><path class="cls-5" d="M28.76,187.42a34.46,34.46,0,0,0-5,7.26,1.39,1.39,0,0,1,.28.12A34.3,34.3,0,0,1,29,187.64,1.52,1.52,0,0,1,28.76,187.42Z" transform="translate(-6.85)"/><path class="cls-5" d="M20.33,210a34.14,34.14,0,0,1,.59-6l-.3,0A33.55,33.55,0,0,0,20,210,1.41,1.41,0,0,1,20.33,210Z" transform="translate(-6.85)"/><path class="cls-5" d="M25,227.45a34.11,34.11,0,0,1-3.63-8.76l-.27,0h0a34.15,34.15,0,0,0,3.7,8.94A1.51,1.51,0,0,1,25,227.45Z" transform="translate(-6.85)"/><path class="cls-5" d="M67.92,241.74A34.35,34.35,0,0,0,77,236a1.1,1.1,0,0,1-.22-.21,34.08,34.08,0,0,1-9,5.71A1.34,1.34,0,0,1,67.92,241.74Z" transform="translate(-6.85)"/><path class="cls-5" d="M40.26,241.19a34.37,34.37,0,0,1-8.74-5.75,1.43,1.43,0,0,1-.2.23,34.26,34.26,0,0,0,8.84,5.81A1,1,0,0,1,40.26,241.19Z" transform="translate(-6.85)"/><path class="cls-5" d="M84.6,194.13a34.1,34.1,0,0,0-4.94-7l0,.08a1.27,1.27,0,0,1-.13.19,34.43,34.43,0,0,1,4.85,6.92A1.44,1.44,0,0,1,84.6,194.13Z" transform="translate(-6.85)"/><text class="cls-1" transform="translate(34.42 245.04)">Succinyl-Co<tspan class="cls-6" x="23.21" y="0">A</tspan></text><text class="cls-1" transform="translate(13.95 184.07)">Oxaloacetate</text><text class="cls-1" transform="translate(57.86 184.62)">Acetyl-Co<tspan class="cls-7" x="18.86" y="0">A</tspan></text><text class="cls-1" transform="translate(8.77 199.99)">Malate</text><text class="cls-1" transform="translate(10.99 232.38)">Succinate</text><text class="cls-1" transform="translate(73.81 200.54)">Citrate</text><text class="cls-1" transform="translate(4.08 215.91)">Fumarate</text><text class="cls-1" transform="translate(72.76 216.46)">Isocitrate</text><text class="cls-1" transform="translate(59.37 232.92)">a-ketoglutarate</text><g class="cls-8"><text class="cls-9" transform="translate(34.02 211.83)">TC<tspan class="cls-10" x="7.98" y="0">A</tspan><tspan x="11.64" y="0" xml:space="preserve"> cycle</tspan></text><text class="cls-11" transform="translate(34.02 211.83)">TC<tspan class="cls-10" x="7.98" y="0">A</tspan><tspan x="11.64" y="0" xml:space="preserve"> cycle</tspan></text></g><polygon class="cls-12" points="22.75 186.65 20.48 187.48 22.33 189.03 22.75 186.65"/><polygon class="cls-12" points="14.16 202.56 12.57 204.37 14.93 204.85 14.16 202.56"/><polygon class="cls-12" points="14.31 218.51 13.69 220.84 16.02 220.21 14.31 218.51"/><polygon class="cls-12" points="23.93 235.04 24.74 237.31 26.3 235.48 23.93 235.04"/><polygon class="cls-12" points="60.66 241.74 63.07 241.86 61.97 239.72 60.66 241.74"/><polygon class="cls-12" points="81.63 210.89 82.84 208.8 80.42 208.8 81.63 210.89"/><polygon class="cls-12" points="78 194.79 78 192.38 75.9 193.59 78 194.79"/><polygon class="cls-12" points="62.23 179.69 61.11 177.54 59.82 179.58 62.23 179.69"/><polygon class="cls-12" points="16.63 195.08 18.79 194.01 16.78 192.67 16.63 195.08"/><polygon class="cls-12" points="80.88 202.59 79.98 204.83 82.37 204.49 80.88 202.59"/><polygon class="cls-12" points="33.8 241.36 32.41 239.39 31.4 241.58 33.8 241.36"/><polygon class="cls-12" points="13.3 210.52 14.51 208.43 12.09 208.43 13.3 210.52"/><path class="cls-13" d="M54.33,158.2c0,10.09,2.42,18.26,5.4,18.26" transform="translate(-6.85)"/><path class="cls-12" d="M87.26,226.11l.27.15a33.44,33.44,0,0,0,2.13-5.74h-.32A33.84,33.84,0,0,1,87.26,226.11Z" transform="translate(-6.85)"/><path class="cls-12" d="M83.81,226.11l.28.15a34.3,34.3,0,0,0,2.13-5.74H85.9A33.88,33.88,0,0,1,83.81,226.11Z" transform="translate(-6.85)"/><polygon class="cls-12" points="80.1 227.23 82.03 225.77 79.8 224.84 80.1 227.23"/><polygon class="cls-12" points="79.53 219.55 77.74 221.18 80.04 221.91 79.53 219.55"/><line class="cls-3" x1="47.35" y1="13.98" x2="47.35" y2="21.48"/><polygon points="45.76 21.01 47.35 23.77 48.95 21.01 45.76 21.01"/><line class="cls-3" x1="47.49" y1="32.23" x2="47.49" y2="37.43"/><polygon points="45.89 32.7 47.49 29.94 49.08 32.7 45.89 32.7"/><polygon points="45.89 36.97 47.49 39.73 49.08 36.97 45.89 36.97"/><line class="cls-3" x1="49.73" y1="55.68" x2="49.73" y2="48.19"/><polygon points="51.33 48.66 49.73 45.89 48.13 48.66 51.33 48.66"/><line class="cls-3" x1="45.24" y1="45.89" x2="45.24" y2="53.39"/><polygon points="43.65 52.92 45.24 55.68 46.84 52.92 43.65 52.92"/><line class="cls-3" x1="47.49" y1="61.85" x2="47.49" y2="69.34"/><polygon points="45.89 68.88 47.49 71.64 49.08 68.88 45.89 68.88"/><line class="cls-3" x1="47.49" y1="64.02" x2="67.79" y2="70.9"/><polygon points="66.83 72.26 69.96 71.64 67.86 69.24 66.83 72.26"/><line class="cls-3" x1="57.61" y1="74.74" x2="66.25" y2="74.71"/><polygon points="58.08 76.33 55.31 74.75 58.07 73.14 58.08 76.33"/><polygon points="65.79 76.31 68.54 74.7 65.78 73.12 65.79 76.31"/><line class="cls-3" x1="47.49" y1="80.1" x2="47.49" y2="85.3"/><polygon points="45.89 80.57 47.49 77.8 49.08 80.57 45.89 80.57"/><polygon points="45.89 84.83 47.49 87.59 49.08 84.83 45.89 84.83"/><line class="cls-3" x1="47.49" y1="96.06" x2="47.49" y2="101.25"/><polygon points="45.89 96.52 47.49 93.76 49.08 96.52 45.89 96.52"/><polygon points="45.89 100.79 47.49 103.55 49.08 100.79 45.89 100.79"/><line class="cls-3" x1="104.54" y1="112.01" x2="104.54" y2="117.21"/><polygon points="102.94 112.48 104.54 109.71 106.13 112.48 102.94 112.48"/><polygon points="102.94 116.74 104.54 119.5 106.13 116.74 102.94 116.74"/><line class="cls-3" x1="47.49" y1="112.01" x2="47.49" y2="117.21"/><polygon points="45.89 112.48 47.49 109.71 49.08 112.48 45.89 112.48"/><polygon points="45.89 116.74 47.49 119.5 49.08 116.74 45.89 116.74"/><line class="cls-3" x1="47.49" y1="127.97" x2="47.49" y2="133.16"/><polygon points="45.89 128.43 47.49 125.67 49.08 128.43 45.89 128.43"/><polygon points="45.89 132.7 47.49 135.46 49.08 132.7 45.89 132.7"/><line class="cls-3" x1="47.49" y1="141.62" x2="47.49" y2="149.12"/><polygon points="45.89 148.65 47.49 151.41 49.08 148.65 45.89 148.65"/><line class="cls-3" x1="93.4" y1="155.03" x2="59.71" y2="155.03"/><polygon points="92.94 153.43 95.7 155.03 92.94 156.62 92.94 153.43"/><polygon points="60.18 153.43 57.41 155.03 60.18 156.62 60.18 153.43"/><text x="-6.85"/><g class="cls-14"><text class="cls-9" transform="translate(10.07 5.13)">Glycolysis/Gluconeogenesis</text><text class="cls-11" transform="translate(10.07 5.13)">Glycolysis/Gluconeogenesis</text></g></svg>