<svg id="Layer_1" data-name="Layer 1" xmlns="http://www.w3.org/2000/svg" viewBox="0 0 111.67 237.58"><defs><style>.cls-1{font-size:4.35px;font-family:ArialMT, Arial;}.cls-2{letter-spacing:-0.02em;}.cls-3,.cls-9{fill:none;}.cls-3,.cls-5,.cls-8,.cls-9{stroke:#000;stroke-miterlimit:10;}.cls-4{letter-spacing:-0.02em;}.cls-5{stroke-width:0.25px;}.cls-6{letter-spacing:-0.06em;}.cls-7{letter-spacing:-0.06em;}.cls-8{stroke-width:0.5px;}.cls-9{stroke-width:0.75px;}</style></defs><text class="cls-1" transform="translate(69.45 99.46)">3-PH<tspan class="cls-2" x="9.91" y="0">P</tspan></text><line class="cls-3" x1="85.5" y1="97.96" x2="96.73" y2="97.93"/><polygon points="85.97 99.55 83.21 97.97 85.97 96.36 85.97 99.55"/><polygon points="96.27 99.53 99.03 97.92 96.26 96.34 96.27 99.53"/><line class="cls-3" x1="55.25" y1="97.96" x2="66.48" y2="97.93"/><polygon points="55.72 99.55 52.95 97.97 55.71 96.36 55.72 99.55"/><polygon points="66.02 99.53 68.77 97.92 66.01 96.34 66.02 99.53"/><text class="cls-1" transform="translate(39.5 3.73)">Glucose</text><text class="cls-1" transform="translate(43.17 19.69)">G6<tspan class="cls-4" x="5.8" y="0">P</tspan></text><text class="cls-1" transform="translate(43.54 35.64)">F6<tspan class="cls-4" x="5.08" y="0">P</tspan></text><text class="cls-1" transform="translate(40.27 51.6)">F1,6B<tspan class="cls-4" x="11.61" y="0">P</tspan></text><text class="cls-1" transform="translate(69.27 67.56)">DHA<tspan class="cls-4" x="9.19" y="0">P</tspan></text><text class="cls-1" transform="translate(43.17 67.56)">G3<tspan class="cls-4" x="5.8" y="0">P</tspan></text><text class="cls-1" transform="translate(98.25 115.42)">Serine</text><text class="cls-1" transform="translate(99.7 99.46)">3-PS</text><text class="cls-1" transform="translate(39.14 83.51)">1,3-BPG</text><text class="cls-1" transform="translate(43.13 99.46)">3PG</text><text class="cls-1" transform="translate(43.13 115.42)">2PG</text><text class="cls-1" transform="translate(43.17 131.38)">PE<tspan class="cls-4" x="5.8" y="0">P</tspan></text><text class="cls-1" transform="translate(38.9 147.32)">Pyruvate</text><text class="cls-1" transform="translate(97.4 147.32)">Lactate</text><line class="cls-3" y1="154.54" x2="97.91" y2="154.54"/><path class="cls-5" d="M87.89,204.17h-.11a33.78,33.78,0,0,1,.57,6.08v0a1.41,1.41,0,0,1,.31-.08,34.35,34.35,0,0,0-.57-6Z" transform="translate(-6.85 -8.87)"/><path class="cls-5" d="M68.7,179.11a34.07,34.07,0,0,0-28.15-.29,1.71,1.71,0,0,1,.09.3,33.79,33.79,0,0,1,27.92.26C68.6,179.29,68.65,179.2,68.7,179.11Z" transform="translate(-6.85 -8.87)"/><path class="cls-5" d="M28.76,187.42a34.46,34.46,0,0,0-5,7.26,1.39,1.39,0,0,1,.28.12A34.3,34.3,0,0,1,29,187.64,1.52,1.52,0,0,1,28.76,187.42Z" transform="translate(-6.85 -8.87)"/><path class="cls-5" d="M20.33,210a34.14,34.14,0,0,1,.59-6l-.3,0A33.55,33.55,0,0,0,20,210,1.41,1.41,0,0,1,20.33,210Z" transform="translate(-6.85 -8.87)"/><path class="cls-5" d="M25,227.45a34.11,34.11,0,0,1-3.63-8.76l-.27,0h0a34.15,34.15,0,0,0,3.7,8.94A1.51,1.51,0,0,1,25,227.45Z" transform="translate(-6.85 -8.87)"/><path class="cls-5" d="M67.92,241.74A34.35,34.35,0,0,0,77,236a1.1,1.1,0,0,1-.22-.21,34.08,34.08,0,0,1-9,5.71A1.34,1.34,0,0,1,67.92,241.74Z" transform="translate(-6.85 -8.87)"/><path class="cls-5" d="M40.26,241.19a34.37,34.37,0,0,1-8.74-5.75,1.43,1.43,0,0,1-.2.23,34.26,34.26,0,0,0,8.84,5.81A1,1,0,0,1,40.26,241.19Z" transform="translate(-6.85 -8.87)"/><path class="cls-5" d="M84.6,194.13a34.1,34.1,0,0,0-4.94-7l0,.08a1.27,1.27,0,0,1-.13.19,34.43,34.43,0,0,1,4.85,6.92A1.44,1.44,0,0,1,84.6,194.13Z" transform="translate(-6.85 -8.87)"/><text class="cls-1" transform="translate(34.42 236.17)">Succinyl-Co<tspan class="cls-6" x="23.21" y="0">A</tspan></text><text class="cls-1" transform="translate(13.95 175.2)">Oxaloacetate</text><text class="cls-1" transform="translate(57.86 175.75)">Acetyl-Co<tspan class="cls-7" x="18.86" y="0">A</tspan></text><text class="cls-1" transform="translate(8.77 191.12)">Malate</text><text class="cls-1" transform="translate(10.99 223.51)">Succinate</text><text class="cls-1" transform="translate(73.81 191.67)">Citrate</text><text class="cls-1" transform="translate(4.08 207.04)">Fumarate</text><text class="cls-1" transform="translate(72.76 207.59)">Isocitrate</text><text class="cls-1" transform="translate(59.37 224.05)">a-ketoglutarate</text><polygon class="cls-8" points="22.75 177.78 20.48 178.61 22.33 180.16 22.75 177.78"/><polygon class="cls-8" points="14.16 193.69 12.57 195.5 14.93 195.98 14.16 193.69"/><polygon class="cls-8" points="14.31 209.63 13.69 211.97 16.02 211.34 14.31 209.63"/><polygon class="cls-8" points="23.93 226.17 24.74 228.44 26.3 226.61 23.93 226.17"/><polygon class="cls-8" points="60.66 232.87 63.07 232.99 61.97 230.84 60.66 232.87"/><polygon class="cls-8" points="81.63 202.02 82.84 199.93 80.42 199.93 81.63 202.02"/><polygon class="cls-8" points="78 185.92 78 183.51 75.9 184.72 78 185.92"/><polygon class="cls-8" points="62.23 170.81 61.11 168.67 59.82 170.71 62.23 170.81"/><polygon class="cls-8" points="16.63 186.21 18.79 185.14 16.78 183.8 16.63 186.21"/><polygon class="cls-8" points="80.88 193.72 79.98 195.96 82.37 195.62 80.88 193.72"/><polygon class="cls-8" points="33.8 232.49 32.41 230.52 31.4 232.71 33.8 232.49"/><polygon class="cls-8" points="13.3 201.65 14.51 199.56 12.09 199.56 13.3 201.65"/><path class="cls-9" d="M54.33,158.2c0,10.09,2.42,18.26,5.4,18.26" transform="translate(-6.85 -8.87)"/><path class="cls-8" d="M87.26,226.11l.27.15a33.44,33.44,0,0,0,2.13-5.74h-.32A33.84,33.84,0,0,1,87.26,226.11Z" transform="translate(-6.85 -8.87)"/><path class="cls-8" d="M83.81,226.11l.28.15a34.3,34.3,0,0,0,2.13-5.74H85.9A33.88,33.88,0,0,1,83.81,226.11Z" transform="translate(-6.85 -8.87)"/><polygon class="cls-8" points="80.1 218.36 82.03 216.9 79.8 215.96 80.1 218.36"/><polygon class="cls-8" points="79.53 210.68 77.74 212.31 80.04 213.04 79.53 210.68"/><line class="cls-3" x1="47.35" y1="5.11" x2="47.35" y2="12.61"/><polygon points="45.76 12.14 47.35 14.9 48.95 12.14 45.76 12.14"/><line class="cls-3" x1="47.49" y1="23.36" x2="47.49" y2="28.56"/><polygon points="45.89 23.83 47.49 21.07 49.08 23.83 45.89 23.83"/><polygon points="45.89 28.09 47.49 30.86 49.08 28.09 45.89 28.09"/><line class="cls-3" x1="49.73" y1="46.81" x2="49.73" y2="39.32"/><polygon points="51.33 39.79 49.73 37.02 48.13 39.79 51.33 39.79"/><line class="cls-3" x1="45.24" y1="37.02" x2="45.24" y2="44.52"/><polygon points="43.65 44.05 45.24 46.81 46.84 44.05 43.65 44.05"/><line class="cls-3" x1="47.49" y1="52.98" x2="47.49" y2="60.47"/><polygon points="45.89 60.01 47.49 62.77 49.08 60.01 45.89 60.01"/><line class="cls-3" x1="47.49" y1="55.15" x2="67.79" y2="62.03"/><polygon points="66.83 63.39 69.96 62.77 67.86 60.37 66.83 63.39"/><line class="cls-3" x1="57.61" y1="65.87" x2="66.25" y2="65.84"/><polygon points="58.08 67.46 55.31 65.87 58.07 64.27 58.08 67.46"/><polygon points="65.79 67.44 68.54 65.83 65.78 64.25 65.79 67.44"/><line class="cls-3" x1="47.49" y1="71.23" x2="47.49" y2="76.43"/><polygon points="45.89 71.7 47.49 68.93 49.08 71.7 45.89 71.7"/><polygon points="45.89 75.96 47.49 78.72 49.08 75.96 45.89 75.96"/><line class="cls-3" x1="47.49" y1="87.18" x2="47.49" y2="92.38"/><polygon points="45.89 87.65 47.49 84.89 49.08 87.65 45.89 87.65"/><polygon points="45.89 91.92 47.49 94.68 49.08 91.92 45.89 91.92"/><line class="cls-3" x1="104.54" y1="103.14" x2="104.54" y2="108.34"/><polygon points="102.94 103.61 104.54 100.84 106.13 103.61 102.94 103.61"/><polygon points="102.94 107.87 104.54 110.63 106.13 107.87 102.94 107.87"/><line class="cls-3" x1="47.49" y1="103.14" x2="47.49" y2="108.34"/><polygon points="45.89 103.61 47.49 100.84 49.08 103.61 45.89 103.61"/><polygon points="45.89 107.87 47.49 110.63 49.08 107.87 45.89 107.87"/><line class="cls-3" x1="47.49" y1="119.1" x2="47.49" y2="124.29"/><polygon points="45.89 119.56 47.49 116.8 49.08 119.56 45.89 119.56"/><polygon points="45.89 123.83 47.49 126.59 49.08 123.83 45.89 123.83"/><line class="cls-3" x1="47.49" y1="132.75" x2="47.49" y2="140.25"/><polygon points="45.89 139.78 47.49 142.54 49.08 139.78 45.89 139.78"/><line class="cls-3" x1="93.4" y1="146.16" x2="59.71" y2="146.16"/><polygon points="92.94 144.56 95.7 146.16 92.94 147.75 92.94 144.56"/><polygon points="60.18 144.56 57.41 146.16 60.18 147.75 60.18 144.56"/><text x="-6.85" y="-8.87"/></svg>