<?xml version="1.0" encoding="utf-8"?>
<!-- Generator: Adobe Illustrator 24.2.1, SVG Export Plug-In . SVG Version: 6.00 Build 0)  -->
<svg version="1.1" id="Layer_1" xmlns="http://www.w3.org/2000/svg" xmlns:xlink="http://www.w3.org/1999/xlink" x="0px" y="0px"
	 viewBox="0 0 106.1 228.1" style="enable-background:new 0 0 106.1 228.1;" xml:space="preserve">
<style type="text/css">
	.st0{fill:none;stroke:#000000;stroke-miterlimit:10;}
	.st1{stroke:#000000;stroke-width:0.25;stroke-miterlimit:10;}
	.st2{stroke:#000000;stroke-width:0.5;stroke-miterlimit:10;}
	.st3{fill:none;stroke:#000000;stroke-width:0.75;stroke-miterlimit:10;}
</style>
<line class="st0" x1="83" y1="92.8" x2="99.3" y2="92.8"/>
<polygon points="83,94.4 80.2,92.8 83,91.3 "/>
<polygon points="99.3,94.4 102,92.8 99.3,91.2 "/>
<line class="st0" x1="52.3" y1="92.8" x2="72" y2="92.8"/>
<polygon points="52.7,94.4 50,92.8 52.7,91.3 "/>
<polygon points="72,94.4 74.8,92.8 72,91.2 "/>
<line class="st0" x1="0" y1="149.4" x2="97.9" y2="149.4"/>
<path class="st1" d="M82,191.2h-0.1c0.4,2,0.6,4,0.6,6.1l0,0c0.1,0,0.2-0.1,0.3-0.1c0-2-0.2-4-0.6-6H82z"/>
<path class="st1" d="M66.2,166.5c-11.4-7.3-24.5-7.4-35.9-0.5c0,0.2,0.1,0.3,0.1,0.5c11.4-6.9,24.4-6.7,35.6,0.5
	C66,166.8,66.1,166.7,66.2,166.5z"/>
<path class="st1" d="M24.1,170.8c-2.8,3-5.3,6.3-7.2,9.9c0.1,0,0.3,0.1,0.4,0.2c1.9-3.5,4.3-6.8,7.2-9.7
	C24.4,171,24.2,170.9,24.1,170.8z"/>
<path class="st1" d="M13.5,195c0-2,0.2-4,0.6-6h-0.3c-0.4,2-0.6,4-0.6,6C13.3,195,13.4,195,13.5,195z"/>
<path class="st1" d="M19.5,215.4c-2.2-3.4-3.8-7-4.9-10.7h-0.4l0,0c1.1,3.8,2.8,7.5,5,11C19.3,215.6,19.4,215.5,19.5,215.4z"/>
<path class="st1" d="M56.1,227.6c6.6-2.3,12.8-5.4,18.2-9.2c-0.2-0.1-0.3-0.2-0.4-0.3c-5.4,3.8-11.4,6.8-18,9.1
	C56,227.3,56.1,227.5,56.1,227.6z"/>
<path class="st1" d="M42.1,227.7c-5.2-1.7-10.9-4.1-16.5-7.4c-0.1,0.1-0.3,0.1-0.4,0.2c4.9,2.9,10.5,5.4,16.7,7.4
	C42,227.9,42,227.8,42.1,227.7z"/>
<path class="st1" d="M79.4,182.3c-2-3.4-4.4-6.6-7.2-9.4v0.1c-0.1,0.1-0.1,0.2-0.2,0.3c2.8,2.8,5.1,6,7,9.3
	C79.1,182.5,79.3,182.4,79.4,182.3z"/>
<polygon class="st2" points="25.8,169.7 23.5,170.5 25.3,172.1 "/>
<polygon class="st2" points="14.2,186.6 12.6,188.4 14.9,188.9 "/>
<polygon class="st2" points="14.3,203.5 13.7,205.9 16,205.2 "/>
<polygon class="st2" points="23.9,219.1 24.7,221.3 26.3,219.5 "/>
<polygon class="st2" points="54.7,227.8 57.1,227.9 56,225.7 "/>
<polygon class="st2" points="82.6,197.9 83.8,195.8 81.4,195.8 "/>
<polygon class="st2" points="80,183.8 80,181.4 77.9,182.6 "/>
<polygon class="st2" points="67.2,167.7 66.1,165.6 64.8,167.6 "/>
<polygon class="st2" points="16.6,181.1 18.8,180 16.8,178.7 "/>
<polygon class="st2" points="81.9,189.6 81,191.9 83.4,191.5 "/>
<polygon class="st2" points="42.8,228 41.4,226.1 40.4,228.2 "/>
<polygon class="st2" points="13.3,196.5 14.5,194.4 12.1,194.4 "/>
<path class="st3" d="M47.5,144.2c0,9.6,2.4,17.3,5.4,17.3"/>
<path class="st2" d="M80.4,212.1l0.3,0.1c0.9-1.8,1.6-3.8,2.1-5.7h-0.3C82,208.5,81.3,210.3,80.4,212.1z"/>
<path class="st2" d="M77,212.1l0.3,0.1c0.9-1.8,1.6-3.8,2.1-5.7h-0.3C78.5,208.5,77.8,210.3,77,212.1z"/>
<polygon class="st2" points="80.1,213.3 82,211.8 79.8,210.9 "/>
<polygon class="st2" points="79.5,205.6 77.7,207.2 80,207.9 "/>
<line class="st0" x1="47.3" y1="0" x2="47.3" y2="7.5"/>
<polygon points="45.8,7 47.3,9.8 49,7 "/>
<line class="st0" x1="47.5" y1="18.3" x2="47.5" y2="23.5"/>
<polygon points="45.9,18.7 47.5,16 49.1,18.7 "/>
<polygon points="45.9,23 47.5,25.8 49.1,23 "/>
<line class="st0" x1="49.7" y1="41.7" x2="49.7" y2="34.2"/>
<polygon points="51.3,34.7 49.7,31.9 48.1,34.7 "/>
<line class="st0" x1="45.2" y1="31.9" x2="45.2" y2="39.4"/>
<polygon points="43.7,38.9 45.2,41.7 46.8,38.9 "/>
<line class="st0" x1="47.5" y1="47.9" x2="47.5" y2="55.4"/>
<polygon points="45.9,54.9 47.5,57.7 49.1,54.9 "/>
<line class="st0" x1="47.5" y1="50" x2="67.8" y2="56.9"/>
<polygon points="66.8,58.3 70,57.7 67.9,55.3 "/>
<line class="st0" x1="52.6" y1="60.8" x2="66" y2="60.7"/>
<polygon points="53.1,62.3 50.3,60.8 53.1,59.2 "/>
<polygon points="65.8,62.3 68.5,60.7 65.8,59.1 "/>
<line class="st0" x1="47.5" y1="66.1" x2="47.5" y2="71.3"/>
<polygon points="45.9,66.6 47.5,63.8 49.1,66.6 "/>
<polygon points="45.9,70.8 47.5,73.6 49.1,70.8 "/>
<line class="st0" x1="47.5" y1="82.1" x2="47.5" y2="87.3"/>
<polygon points="45.9,82.5 47.5,79.8 49.1,82.5 "/>
<polygon points="45.9,86.8 47.5,89.6 49.1,86.8 "/>
<line class="st0" x1="104.5" y1="98" x2="104.5" y2="103.2"/>
<polygon points="102.9,98.5 104.5,95.7 106.1,98.5 "/>
<polygon points="102.9,102.8 104.5,105.5 106.1,102.8 "/>
<line class="st0" x1="47.5" y1="98" x2="47.5" y2="103.2"/>
<polygon points="45.9,98.5 47.5,95.7 49.1,98.5 "/>
<polygon points="45.9,102.8 47.5,105.5 49.1,102.8 "/>
<line class="st0" x1="47.5" y1="114" x2="47.5" y2="119.2"/>
<polygon points="45.9,114.4 47.5,111.7 49.1,114.4 "/>
<polygon points="45.9,118.7 47.5,121.5 49.1,118.7 "/>
<line class="st0" x1="47.5" y1="127.6" x2="47.5" y2="135.1"/>
<polygon points="45.9,134.7 47.5,137.4 49.1,134.7 "/>
<line class="st0" x1="87.4" y1="141" x2="53.7" y2="141"/>
<polygon points="86.9,139.4 89.7,141 86.9,142.6 "/>
<polygon points="54.2,139.4 51.4,141 54.2,142.6 "/>
</svg>
