<svg id="Layer_1" data-name="Layer 1" xmlns="http://www.w3.org/2000/svg" xmlns:xlink="http://www.w3.org/1999/xlink" viewBox="0 0 115.03 248.4"><defs><style>.cls-1{font-size:4.35px;}.cls-1,.cls-10,.cls-12{font-family:ArialMT, Arial;}.cls-2{letter-spacing:-0.02em;}.cls-13,.cls-3{fill:none;}.cls-13,.cls-3,.cls-5{stroke:#000;stroke-miterlimit:10;}.cls-4{letter-spacing:-0.02em;}.cls-5{stroke-width:0.5px;}.cls-6{fill:#fff;}.cls-7{letter-spacing:-0.06em;}.cls-8{letter-spacing:-0.06em;}.cls-9{mask:url(#mask);}.cls-10,.cls-12{font-size:5.98px;}.cls-11{letter-spacing:-0.06em;}.cls-12{fill:#231f20;}.cls-13{stroke-width:0.75px;}.cls-14{mask:url(#mask-2);}.cls-15{filter:url(#luminosity-noclip-2);}.cls-16{filter:url(#luminosity-noclip);}</style><filter id="luminosity-noclip" x="40.87" y="-8588" width="26.93" height="32766" filterUnits="userSpaceOnUse" color-interpolation-filters="sRGB"><feFlood flood-color="#fff" result="bg"/><feBlend in="SourceGraphic" in2="bg"/></filter><mask id="mask" x="37.38" y="-8588" width="26.93" height="32766" maskUnits="userSpaceOnUse"><g class="cls-16"/></mask><filter id="luminosity-noclip-2" x="16.92" y="-8588" width="74.82" height="32766" filterUnits="userSpaceOnUse" color-interpolation-filters="sRGB"><feFlood flood-color="#fff" result="bg"/><feBlend in="SourceGraphic" in2="bg"/></filter><mask id="mask-2" x="13.43" y="-8588" width="74.82" height="32766" maskUnits="userSpaceOnUse"><g class="cls-15"/></mask></defs><text class="cls-1" transform="translate(72.81 108.34)">3-PH<tspan class="cls-2" x="9.91" y="0">P</tspan></text><line class="cls-3" x1="88.86" y1="106.83" x2="100.09" y2="106.8"/><polygon points="89.33 108.42 86.56 106.84 89.32 105.23 89.33 108.42"/><polygon points="99.63 108.4 102.38 106.8 99.62 105.21 99.63 108.4"/><line class="cls-3" x1="58.6" y1="106.83" x2="69.83" y2="106.8"/><polygon points="59.08 108.42 56.31 106.84 59.07 105.23 59.08 108.42"/><polygon points="69.37 108.4 72.13 106.8 69.36 105.21 69.37 108.4"/><text class="cls-1" transform="translate(42.86 12.61)">Glucose</text><text class="cls-1" transform="translate(46.53 28.56)">G6<tspan class="cls-4" x="5.8" y="0">P</tspan></text><text class="cls-1" transform="translate(46.89 44.52)">F6<tspan class="cls-4" x="5.08" y="0">P</tspan></text><text class="cls-1" transform="translate(43.63 60.47)">F1,6B<tspan class="cls-4" x="11.61" y="0">P</tspan></text><text class="cls-1" transform="translate(72.63 76.43)">DHA<tspan class="cls-4" x="9.19" y="0">P</tspan></text><text class="cls-1" transform="translate(46.53 76.43)">G3<tspan class="cls-4" x="5.8" y="0">P</tspan></text><text class="cls-1" transform="translate(101.6 124.29)">Serine</text><text class="cls-1" transform="translate(103.06 108.34)">3-PS</text><text class="cls-1" transform="translate(42.5 92.38)">1,3-BPG</text><text class="cls-1" transform="translate(46.49 108.34)">3PG</text><text class="cls-1" transform="translate(46.49 124.29)">2PG</text><text class="cls-1" transform="translate(46.53 140.25)">PE<tspan class="cls-4" x="5.8" y="0">P</tspan></text><text class="cls-1" transform="translate(42.26 156.19)">Pyruvate</text><text class="cls-1" transform="translate(100.76 156.19)">Lactate</text><line class="cls-3" x1="3.36" y1="163.41" x2="101.26" y2="163.41"/><path class="cls-5" d="M88.66,210.24a34.33,34.33,0,1,1-34.33-34.32A34.37,34.37,0,0,1,88.66,210.24Zm-.31,0a34,34,0,1,0-34,34A34,34,0,0,0,88.35,210.24Z" transform="translate(-3.49)"/><ellipse class="cls-6" cx="50.84" cy="243.88" rx="16.74" ry="4.52"/><text class="cls-1" transform="translate(37.78 245.04)">Succinyl-Co<tspan class="cls-7" x="23.21" y="0">A</tspan></text><ellipse class="cls-6" cx="30.13" cy="182.91" rx="16.74" ry="4.52"/><text class="cls-1" transform="translate(17.31 184.07)">Oxaloacetate</text><ellipse class="cls-6" cx="71.56" cy="182.91" rx="16.74" ry="4.52"/><text class="cls-1" transform="translate(61.22 184.62)">Acetyl-Co<tspan class="cls-8" x="18.86" y="0">A</tspan></text><ellipse class="cls-6" cx="18.66" cy="198.83" rx="16.74" ry="4.52"/><text class="cls-1" transform="translate(12.13 199.99)">Malate</text><ellipse class="cls-6" cx="23.9" cy="231.22" rx="16.74" ry="4.52"/><text class="cls-1" transform="translate(14.35 232.38)">Succinate</text><ellipse class="cls-6" cx="83.03" cy="198.83" rx="16.74" ry="4.52"/><ellipse class="cls-6" cx="16.74" cy="214.75" rx="16.74" ry="4.52"/><text class="cls-1" transform="translate(77.16 200.54)">Citrate</text><text class="cls-1" transform="translate(7.43 215.91)">Fumarate</text><ellipse class="cls-6" cx="84.94" cy="214.75" rx="16.74" ry="4.52"/><text class="cls-1" transform="translate(76.12 216.46)">Isocitrate</text><ellipse class="cls-6" cx="77.78" cy="231.22" rx="16.74" ry="4.52"/><text class="cls-1" transform="translate(62.73 232.92)">a-ketoglutarate</text><g class="cls-9"><text class="cls-10" transform="translate(37.38 211.83)">TC<tspan class="cls-11" x="7.98" y="0">A</tspan><tspan x="11.64" y="0" xml:space="preserve"> cycle</tspan></text><text class="cls-12" transform="translate(37.38 211.83)">TC<tspan class="cls-11" x="7.98" y="0">A</tspan><tspan x="11.64" y="0" xml:space="preserve"> cycle</tspan></text></g><polygon class="cls-5" points="26.1 186.65 23.84 187.48 25.69 189.03 26.1 186.65"/><polygon class="cls-5" points="17.52 202.56 15.92 204.37 18.29 204.85 17.52 202.56"/><polygon class="cls-5" points="17.66 218.51 17.05 220.84 19.38 220.21 17.66 218.51"/><polygon class="cls-5" points="27.29 235.04 28.09 237.31 29.66 235.48 27.29 235.04"/><polygon class="cls-5" points="64.02 241.74 66.43 241.86 65.33 239.72 64.02 241.74"/><polygon class="cls-5" points="80.35 227.39 83.08 225.68 80.24 224.17 80.35 227.39"/><polygon class="cls-5" points="84.99 210.89 86.19 208.8 83.78 208.8 84.99 210.89"/><polygon class="cls-5" points="81.35 194.79 81.35 192.38 79.26 193.59 81.35 194.79"/><polygon class="cls-5" points="65.58 179.69 64.47 177.54 63.17 179.58 65.58 179.69"/><ellipse class="cls-6" cx="81.45" cy="223.53" rx="8.13" ry="4.8"/><polygon class="cls-5" points="19.99 195.08 22.15 194.01 20.14 192.67 19.99 195.08"/><polygon class="cls-5" points="84.23 202.59 83.33 204.83 85.72 204.49 84.23 202.59"/><polygon class="cls-5" points="37.16 241.36 35.77 239.39 34.76 241.58 37.16 241.36"/><polygon class="cls-5" points="16.66 210.52 17.86 208.43 15.45 208.43 16.66 210.52"/><path class="cls-13" d="M54.33,158.2c0,10.09,2.42,18.26,5.4,18.26" transform="translate(-3.49)"/><path class="cls-5" d="M87.26,226.11l.27.15a33.44,33.44,0,0,0,2.13-5.74h-.32A33.84,33.84,0,0,1,87.26,226.11Z" transform="translate(-3.49)"/><path class="cls-5" d="M83.81,226.11l.28.15a34.3,34.3,0,0,0,2.13-5.74H85.9A33.88,33.88,0,0,1,83.81,226.11Z" transform="translate(-3.49)"/><polygon class="cls-5" points="83.46 227.23 85.38 225.77 83.16 224.84 83.46 227.23"/><polygon class="cls-5" points="82.88 219.55 81.09 221.18 83.39 221.91 82.88 219.55"/><line class="cls-3" x1="50.71" y1="13.98" x2="50.71" y2="21.48"/><polygon points="49.11 21.01 50.71 23.77 52.3 21.01 49.11 21.01"/><line class="cls-3" x1="50.84" y1="32.23" x2="50.84" y2="37.43"/><polygon points="49.25 32.7 50.84 29.94 52.44 32.7 49.25 32.7"/><polygon points="49.25 36.97 50.84 39.73 52.44 36.97 49.25 36.97"/><line class="cls-3" x1="53.09" y1="55.68" x2="53.09" y2="48.19"/><polygon points="54.68 48.66 53.09 45.89 51.49 48.66 54.68 48.66"/><line class="cls-3" x1="48.6" y1="45.89" x2="48.6" y2="53.39"/><polygon points="47 52.92 48.6 55.68 50.2 52.92 47 52.92"/><line class="cls-3" x1="50.84" y1="61.85" x2="50.84" y2="69.34"/><polygon points="49.25 68.88 50.84 71.64 52.44 68.88 49.25 68.88"/><line class="cls-3" x1="50.84" y1="64.02" x2="71.14" y2="70.9"/><polygon points="70.19 72.26 73.32 71.64 71.21 69.24 70.19 72.26"/><line class="cls-3" x1="60.96" y1="74.74" x2="69.6" y2="74.71"/><polygon points="61.43 76.33 58.67 74.75 61.42 73.14 61.43 76.33"/><polygon points="69.14 76.31 71.9 74.7 69.13 73.12 69.14 76.31"/><line class="cls-3" x1="50.84" y1="80.1" x2="50.84" y2="85.3"/><polygon points="49.25 80.57 50.84 77.8 52.44 80.57 49.25 80.57"/><polygon points="49.25 84.83 50.84 87.59 52.44 84.83 49.25 84.83"/><line class="cls-3" x1="50.84" y1="96.06" x2="50.84" y2="101.25"/><polygon points="49.25 96.52 50.84 93.76 52.44 96.52 49.25 96.52"/><polygon points="49.25 100.79 50.84 103.55 52.44 100.79 49.25 100.79"/><line class="cls-3" x1="107.89" y1="112.01" x2="107.89" y2="117.21"/><polygon points="106.3 112.48 107.89 109.71 109.49 112.48 106.3 112.48"/><polygon points="106.3 116.74 107.89 119.5 109.49 116.74 106.3 116.74"/><line class="cls-3" x1="50.84" y1="112.01" x2="50.84" y2="117.21"/><polygon points="49.25 112.48 50.84 109.71 52.44 112.48 49.25 112.48"/><polygon points="49.25 116.74 50.84 119.5 52.44 116.74 49.25 116.74"/><line class="cls-3" x1="50.84" y1="127.97" x2="50.84" y2="133.16"/><polygon points="49.25 128.43 50.84 125.67 52.44 128.43 49.25 128.43"/><polygon points="49.25 132.7 50.84 135.46 52.44 132.7 49.25 132.7"/><line class="cls-3" x1="50.84" y1="141.62" x2="50.84" y2="149.12"/><polygon points="49.25 148.65 50.84 151.41 52.44 148.65 49.25 148.65"/><line class="cls-3" x1="96.76" y1="155.03" x2="63.07" y2="155.03"/><polygon points="96.29 153.43 99.06 155.03 96.29 156.62 96.29 153.43"/><polygon points="63.53 153.43 60.77 155.03 63.53 156.62 63.53 153.43"/><text x="-3.49"/><g class="cls-14"><text class="cls-10" transform="translate(13.43 5.13)">Glycolysis/Gluconeogenesis</text><text class="cls-12" transform="translate(13.43 5.13)">Glycolysis/Gluconeogenesis</text></g></svg>