<svg id="Layer_1" data-name="Layer 1" xmlns="http://www.w3.org/2000/svg" viewBox="0 0 106.13 228.15"><defs><style>.cls-1,.cls-4{fill:none;}.cls-1,.cls-2,.cls-3,.cls-4{stroke:#000;stroke-miterlimit:10;}.cls-2{stroke-width:0.25px;}.cls-3{stroke-width:0.5px;}.cls-4{stroke-width:0.75px;}</style></defs><line class="cls-1" x1="85.5" y1="92.85" x2="96.73" y2="92.82"/><polygon points="85.97 94.44 83.21 92.85 85.97 91.25 85.97 94.44"/><polygon points="96.27 94.42 99.03 92.81 96.26 91.22 96.27 94.42"/><line class="cls-1" x1="55.25" y1="92.85" x2="66.48" y2="92.82"/><polygon points="55.72 94.44 52.95 92.85 55.71 91.25 55.72 94.44"/><polygon points="66.02 94.42 68.77 92.81 66.01 91.22 66.02 94.42"/><line class="cls-1" y1="149.43" x2="97.91" y2="149.43"/><path class="cls-2" d="M87.89,204.17h-.11a33.78,33.78,0,0,1,.57,6.08v0a1.41,1.41,0,0,1,.31-.08,34.35,34.35,0,0,0-.57-6Z" transform="translate(-6.85 -13.98)"/><path class="cls-2" d="M68.7,179.11a34.07,34.07,0,0,0-28.15-.29,1.71,1.71,0,0,1,.09.3,33.79,33.79,0,0,1,27.92.26C68.6,179.29,68.65,179.2,68.7,179.11Z" transform="translate(-6.85 -13.98)"/><path class="cls-2" d="M28.76,187.42a34.46,34.46,0,0,0-5,7.26,1.39,1.39,0,0,1,.28.12A34.3,34.3,0,0,1,29,187.64,1.52,1.52,0,0,1,28.76,187.42Z" transform="translate(-6.85 -13.98)"/><path class="cls-2" d="M20.33,210a34.14,34.14,0,0,1,.59-6l-.3,0A33.55,33.55,0,0,0,20,210,1.41,1.41,0,0,1,20.33,210Z" transform="translate(-6.85 -13.98)"/><path class="cls-2" d="M25,227.45a34.11,34.11,0,0,1-3.63-8.76l-.27,0h0a34.15,34.15,0,0,0,3.7,8.94A1.51,1.51,0,0,1,25,227.45Z" transform="translate(-6.85 -13.98)"/><path class="cls-2" d="M67.92,241.74A34.35,34.35,0,0,0,77,236a1.1,1.1,0,0,1-.22-.21,34.08,34.08,0,0,1-9,5.71A1.34,1.34,0,0,1,67.92,241.74Z" transform="translate(-6.85 -13.98)"/><path class="cls-2" d="M40.26,241.19a34.37,34.37,0,0,1-8.74-5.75,1.43,1.43,0,0,1-.2.23,34.26,34.26,0,0,0,8.84,5.81A1,1,0,0,1,40.26,241.19Z" transform="translate(-6.85 -13.98)"/><path class="cls-2" d="M84.6,194.13a34.1,34.1,0,0,0-4.94-7l0,.08a1.27,1.27,0,0,1-.13.19,34.43,34.43,0,0,1,4.85,6.92A1.44,1.44,0,0,1,84.6,194.13Z" transform="translate(-6.85 -13.98)"/><polygon class="cls-3" points="22.75 172.67 20.48 173.5 22.33 175.05 22.75 172.67"/><polygon class="cls-3" points="14.16 188.58 12.57 190.39 14.93 190.87 14.16 188.58"/><polygon class="cls-3" points="14.31 204.52 13.69 206.86 16.02 206.22 14.31 204.52"/><polygon class="cls-3" points="23.93 221.05 24.74 223.33 26.3 221.49 23.93 221.05"/><polygon class="cls-3" points="60.66 227.76 63.07 227.88 61.97 225.73 60.66 227.76"/><polygon class="cls-3" points="81.63 196.91 82.84 194.82 80.42 194.82 81.63 196.91"/><polygon class="cls-3" points="78 180.81 78 178.4 75.9 179.6 78 180.81"/><polygon class="cls-3" points="62.23 165.7 61.11 163.56 59.82 165.6 62.23 165.7"/><polygon class="cls-3" points="16.63 181.1 18.79 180.03 16.78 178.69 16.63 181.1"/><polygon class="cls-3" points="80.88 188.61 79.98 190.85 82.37 190.51 80.88 188.61"/><polygon class="cls-3" points="33.8 227.38 32.41 225.41 31.4 227.6 33.8 227.38"/><polygon class="cls-3" points="13.3 196.53 14.51 194.44 12.09 194.44 13.3 196.53"/><path class="cls-4" d="M54.33,158.2c0,10.09,2.42,18.26,5.4,18.26" transform="translate(-6.85 -13.98)"/><path class="cls-3" d="M87.26,226.11l.27.15a33.44,33.44,0,0,0,2.13-5.74h-.32A33.84,33.84,0,0,1,87.26,226.11Z" transform="translate(-6.85 -13.98)"/><path class="cls-3" d="M83.81,226.11l.28.15a34.3,34.3,0,0,0,2.13-5.74H85.9A33.88,33.88,0,0,1,83.81,226.11Z" transform="translate(-6.85 -13.98)"/><polygon class="cls-3" points="80.1 213.25 82.03 211.79 79.8 210.85 80.1 213.25"/><polygon class="cls-3" points="79.53 205.57 77.74 207.19 80.04 207.93 79.53 205.57"/><line class="cls-1" x1="47.35" x2="47.35" y2="7.49"/><polygon points="45.76 7.03 47.35 9.79 48.95 7.03 45.76 7.03"/><line class="cls-1" x1="47.49" y1="18.25" x2="47.49" y2="23.45"/><polygon points="45.89 18.72 47.49 15.96 49.08 18.72 45.89 18.72"/><polygon points="45.89 22.98 47.49 25.75 49.08 22.98 45.89 22.98"/><line class="cls-1" x1="49.73" y1="41.7" x2="49.73" y2="34.21"/><polygon points="51.33 34.67 49.73 31.91 48.13 34.67 51.33 34.67"/><line class="cls-1" x1="45.24" y1="31.91" x2="45.24" y2="39.4"/><polygon points="43.65 38.94 45.24 41.7 46.84 38.94 43.65 38.94"/><line class="cls-1" x1="47.49" y1="47.87" x2="47.49" y2="55.36"/><polygon points="45.89 54.89 47.49 57.66 49.08 54.89 45.89 54.89"/><line class="cls-1" x1="47.49" y1="50.04" x2="67.79" y2="56.92"/><polygon points="66.83 58.28 69.96 57.66 67.86 55.26 66.83 58.28"/><line class="cls-1" x1="57.61" y1="60.75" x2="66.25" y2="60.73"/><polygon points="58.08 62.35 55.31 60.76 58.07 59.16 58.08 62.35"/><polygon points="65.79 62.33 68.54 60.72 65.78 59.13 65.79 62.33"/><line class="cls-1" x1="47.49" y1="66.12" x2="47.49" y2="71.32"/><polygon points="45.89 66.58 47.49 63.82 49.08 66.58 45.89 66.58"/><polygon points="45.89 70.85 47.49 73.61 49.08 70.85 45.89 70.85"/><line class="cls-1" x1="47.49" y1="82.07" x2="47.49" y2="87.27"/><polygon points="45.89 82.54 47.49 79.78 49.08 82.54 45.89 82.54"/><polygon points="45.89 86.8 47.49 89.57 49.08 86.8 45.89 86.8"/><line class="cls-1" x1="104.54" y1="98.03" x2="104.54" y2="103.23"/><polygon points="102.94 98.5 104.54 95.73 106.13 98.5 102.94 98.5"/><polygon points="102.94 102.76 104.54 105.52 106.13 102.76 102.94 102.76"/><line class="cls-1" x1="47.49" y1="98.03" x2="47.49" y2="103.23"/><polygon points="45.89 98.5 47.49 95.73 49.08 98.5 45.89 98.5"/><polygon points="45.89 102.76 47.49 105.52 49.08 102.76 45.89 102.76"/><line class="cls-1" x1="47.49" y1="113.98" x2="47.49" y2="119.18"/><polygon points="45.89 114.45 47.49 111.69 49.08 114.45 45.89 114.45"/><polygon points="45.89 118.71 47.49 121.48 49.08 118.71 45.89 118.71"/><line class="cls-1" x1="47.49" y1="127.64" x2="47.49" y2="135.14"/><polygon points="45.89 134.67 47.49 137.43 49.08 134.67 45.89 134.67"/><line class="cls-1" x1="93.4" y1="141.04" x2="59.71" y2="141.04"/><polygon points="92.94 139.45 95.7 141.04 92.94 142.64 92.94 139.45"/><polygon points="60.18 139.45 57.41 141.04 60.18 142.64 60.18 139.45"/><text x="-6.85" y="-13.98"/></svg>