<?xml version="1.0" encoding="utf-8"?>
<!-- Generator: Adobe Illustrator 24.2.1, SVG Export Plug-In . SVG Version: 6.00 Build 0)  -->
<svg version="1.1" id="Layer_1" xmlns="http://www.w3.org/2000/svg" xmlns:xlink="http://www.w3.org/1999/xlink" x="0px" y="0px"
	 viewBox="0 0 106.1 228.1" style="enable-background:new 0 0 106.1 228.1;" xml:space="preserve">
<style type="text/css">
	.st0{fill:none;stroke:#000000;stroke-width:0.75;stroke-miterlimit:10;}
	.st1{fill:none;stroke:#000000;stroke-miterlimit:10;}
	.st2{fill:none;stroke:#000000;stroke-miterlimit:10;stroke-dasharray:12.2714,4.0905;}
	.st3{stroke:#000000;stroke-width:0.25;stroke-miterlimit:10;}
	.st4{stroke:#000000;stroke-width:0.5;stroke-miterlimit:10;}
</style>
<line class="st0" x1="83" y1="83.8" x2="99.3" y2="83.8"/>
<polygon points="83,85.4 80.2,83.8 83,82.3 "/>
<polygon points="99.3,85.4 102,83.8 99.3,82.2 "/>
<line class="st0" x1="52.3" y1="83.8" x2="72" y2="83.8"/>
<polygon points="52.7,85.4 50,83.8 52.7,82.3 "/>
<polygon points="72,85.4 74.8,83.8 72,82.2 "/>
<g>
	<g>
		<line class="st1" x1="0" y1="143.4" x2="6" y2="143.4"/>
		<line class="st2" x1="10.1" y1="143.4" x2="89.9" y2="143.4"/>
		<line class="st1" x1="91.9" y1="143.4" x2="97.9" y2="143.4"/>
	</g>
</g>
<path class="st3" d="M66.2,166.5c-11.4-7.3-24.5-7.4-35.9-0.5c0,0.2,0.1,0.3,0.1,0.5c11.4-6.9,24.4-6.7,35.6,0.5
	C66,166.8,66.1,166.7,66.2,166.5z"/>
<path class="st3" d="M24.1,170.8c-2.8,3-5.3,6.3-7.2,9.9c0.1,0,0.3,0.1,0.4,0.2c1.9-3.5,4.3-6.8,7.2-9.7
	C24.4,171,24.2,170.9,24.1,170.8z"/>
<path class="st3" d="M13.5,195c0-2,0.2-4,0.6-6h-0.3c-0.4,2-0.6,4-0.6,6C13.3,195,13.4,195,13.5,195z"/>
<path class="st3" d="M19.5,214.4c-2.2-3.4-3.8-7-4.9-10.7h-0.4l0,0c1.1,3.8,2.8,7.5,5,11C19.3,214.6,19.4,214.5,19.5,214.4z"/>
<path class="st3" d="M56.1,226.6c6.3-2.1,12.2-4.9,17.3-8.3c-0.2-0.1-0.3-0.2-0.4-0.3c-5.1,3.4-10.8,6.1-17.1,8.2
	C56,226.3,56.1,226.5,56.1,226.6z"/>
<path class="st3" d="M42.1,226.7c-5.2-1.7-10.9-4.1-16.5-7.4c-0.1,0.1-0.3,0.1-0.4,0.2c4.9,2.9,10.5,5.4,16.7,7.4
	C42,226.9,42,226.8,42.1,226.7z"/>
<path class="st3" d="M79.4,182.3c-2-3.4-4.4-6.6-7.2-9.4v0.1c-0.1,0.1-0.1,0.2-0.2,0.3c2.8,2.8,5.1,6,7,9.3
	C79.1,182.5,79.3,182.4,79.4,182.3z"/>
<polygon class="st4" points="25.8,169.7 23.5,170.5 25.3,172.1 "/>
<polygon class="st4" points="14.2,186.6 12.6,188.4 14.9,188.9 "/>
<polygon class="st4" points="14.3,202.5 13.7,204.9 16,204.2 "/>
<polygon class="st4" points="23.9,218.1 24.7,220.3 26.3,218.5 "/>
<polygon class="st4" points="54.7,226.8 57.1,226.9 56,224.7 "/>
<polygon class="st4" points="80,183.8 80,181.4 77.9,182.6 "/>
<polygon class="st4" points="67.2,167.7 66.1,165.6 64.8,167.6 "/>
<polygon class="st4" points="16.6,181.1 18.8,180 16.8,178.7 "/>
<polygon class="st4" points="42.8,227 41.4,225.1 40.4,227.2 "/>
<polygon class="st4" points="13.3,196.5 14.5,194.4 12.1,194.4 "/>
<path class="st0" d="M47.5,140.2c0,11.8,2.4,21.3,5.4,21.3"/>
<line class="st0" x1="37.3" y1="1" x2="37.3" y2="8.5"/>
<polygon points="35.8,8 37.3,10.8 39,8 "/>
<line class="st0" x1="49.7" y1="28.7" x2="49.7" y2="21.2"/>
<polygon points="51.3,21.7 49.7,18.9 48.1,21.7 "/>
<line class="st0" x1="45.2" y1="18.9" x2="45.2" y2="26.4"/>
<polygon points="43.7,25.9 45.2,28.7 46.8,25.9 "/>
<line class="st0" x1="47.5" y1="34.7" x2="47.5" y2="46.4"/>
<polygon points="45.9,45.9 47.5,48.7 49.1,45.9 "/>
<path class="st1" d="M55.9,48.7"/>
<path class="st1" d="M57.1,42.7"/>
<path class="st1" d="M47.5,41"/>
<path class="st1" d="M52.6,51.8"/>
<line class="st0" x1="47.5" y1="57.1" x2="47.5" y2="62.3"/>
<polygon points="45.9,57.6 47.5,54.8 49.1,57.6 "/>
<polygon points="45.9,61.8 47.5,64.6 49.1,61.8 "/>
<line class="st0" x1="47.5" y1="73.1" x2="47.5" y2="78.3"/>
<polygon points="45.9,73.5 47.5,70.8 49.1,73.5 "/>
<polygon points="45.9,77.8 47.5,80.6 49.1,77.8 "/>
<line class="st0" x1="104.5" y1="89" x2="104.5" y2="94.2"/>
<polygon points="102.9,89.5 104.5,86.7 106.1,89.5 "/>
<polygon points="102.9,93.8 104.5,96.5 106.1,93.8 "/>
<line class="st0" x1="47.5" y1="89" x2="47.5" y2="94.2"/>
<polygon points="45.9,89.5 47.5,86.7 49.1,89.5 "/>
<polygon points="45.9,93.8 47.5,96.5 49.1,93.8 "/>
<line class="st0" x1="47.5" y1="105" x2="47.5" y2="110.2"/>
<polygon points="45.9,105.4 47.5,102.7 49.1,105.4 "/>
<polygon points="45.9,109.7 47.5,112.5 49.1,109.7 "/>
<polygon points="45.9,130.7 47.5,133.4 49.1,130.7 "/>
<line class="st0" x1="87.4" y1="136.1" x2="53.7" y2="136.1"/>
<polygon points="86.9,134.5 89.7,136.1 86.9,137.7 "/>
<polygon points="54.2,134.5 51.4,136.1 54.2,137.7 "/>
<path class="st0" d="M47.3,40.7c1.9-1.1,4.2-0.8,5.4,0.6c1.3,1.6,1.5,4.6,1.4,4.7"/>
<path class="st1" d="M49,42"/>
<path class="st1" d="M54.1,46"/>
<path class="st1" d="M54.1,38.5"/>
<polygon points="52.5,45.5 54.1,48.3 55.7,45.5 "/>
<path class="st3" d="M79.7,211.7c2.3-6.1,3.8-12.5,4.3-18.7c-0.2,0.1-0.3,0.1-0.5,0.1c-0.5,6.2-1.9,12.4-4.2,18.5
	C79.4,211.6,79.6,211.6,79.7,211.7z"/>
<polygon class="st4" points="79.1,213 80.8,211.2 78.4,210.6 "/>
<path class="st3" d="M76.2,211.2c2.4-6.6,3.9-13.3,4.4-19.9c-0.2,0.1-0.3,0.1-0.5,0.1c-0.5,6.6-1.9,13.1-4.3,19.7
	C75.9,211.1,76.1,211.2,76.2,211.2z"/>
<polygon class="st4" points="78.9,192.9 81.3,193 80.2,190.8 "/>
<line class="st0" x1="47.5" y1="119.6" x2="47.5" y2="131.3"/>
</svg>
