<?xml version="1.0" encoding="utf-8"?>
<!-- Generator: Adobe Illustrator 24.2.1, SVG Export Plug-In . SVG Version: 6.00 Build 0)  -->
<svg version="1.1" id="Layer_1" xmlns="http://www.w3.org/2000/svg" xmlns:xlink="http://www.w3.org/1999/xlink" x="0px" y="0px"
	 viewBox="0 0 106.1 228.1" style="enable-background:new 0 0 106.1 228.1;" xml:space="preserve">
<style type="text/css">
	.st0{fill:none;stroke:#000000;stroke-width:0.75;stroke-miterlimit:10;}
	.st1{fill:none;stroke:#000000;stroke-miterlimit:10;}
	.st2{fill:none;stroke:#000000;stroke-miterlimit:10;stroke-dasharray:12.2714,4.0905;}
	.st3{stroke:#000000;stroke-width:0.25;stroke-miterlimit:10;}
	.st4{stroke:#000000;stroke-width:0.5;stroke-miterlimit:10;}
</style>
<line class="st0" x1="83" y1="92.8" x2="99.3" y2="92.8"/>
<polygon points="83,94.4 80.2,92.8 83,91.3 "/>
<polygon points="99.3,94.4 102,92.8 99.3,91.2 "/>
<line class="st0" x1="52.3" y1="92.8" x2="72" y2="92.8"/>
<polygon points="52.7,94.4 50,92.8 52.7,91.3 "/>
<polygon points="72,94.4 74.8,92.8 72,91.2 "/>
<g>
	<g>
		<line class="st1" x1="0" y1="149.4" x2="6" y2="149.4"/>
		<line class="st2" x1="10.1" y1="149.4" x2="89.9" y2="149.4"/>
		<line class="st1" x1="91.9" y1="149.4" x2="97.9" y2="149.4"/>
	</g>
</g>
<path class="st3" d="M66.2,166.5c-11.4-7.3-24.5-7.4-35.9-0.5c0,0.2,0.1,0.3,0.1,0.5c11.4-6.9,24.4-6.7,35.6,0.5
	C66,166.8,66.1,166.7,66.2,166.5z"/>
<path class="st3" d="M24.1,170.8c-2.8,3-5.3,6.3-7.2,9.9c0.1,0,0.3,0.1,0.4,0.2c1.9-3.5,4.3-6.8,7.2-9.7
	C24.4,171,24.2,170.9,24.1,170.8z"/>
<path class="st3" d="M13.5,195c0-2,0.2-4,0.6-6h-0.3c-0.4,2-0.6,4-0.6,6C13.3,195,13.4,195,13.5,195z"/>
<path class="st3" d="M19.5,214.4c-2.2-3.4-3.8-7-4.9-10.7h-0.4l0,0c1.1,3.8,2.8,7.5,5,11C19.3,214.6,19.4,214.5,19.5,214.4z"/>
<path class="st3" d="M56.1,226.6c6.3-2.1,12.2-4.9,17.3-8.3c-0.2-0.1-0.3-0.2-0.4-0.3c-5.1,3.4-10.8,6.1-17.1,8.2
	C56,226.3,56.1,226.5,56.1,226.6z"/>
<path class="st3" d="M42.1,226.7c-5.2-1.7-10.9-4.1-16.5-7.4c-0.1,0.1-0.3,0.1-0.4,0.2c4.9,2.9,10.5,5.4,16.7,7.4
	C42,226.9,42,226.8,42.1,226.7z"/>
<path class="st3" d="M79.4,182.3c-2-3.4-4.4-6.6-7.2-9.4v0.1c-0.1,0.1-0.1,0.2-0.2,0.3c2.8,2.8,5.1,6,7,9.3
	C79.1,182.5,79.3,182.4,79.4,182.3z"/>
<polygon class="st4" points="25.8,169.7 23.5,170.5 25.3,172.1 "/>
<polygon class="st4" points="14.2,186.6 12.6,188.4 14.9,188.9 "/>
<polygon class="st4" points="14.3,202.5 13.7,204.9 16,204.2 "/>
<polygon class="st4" points="23.9,218.1 24.7,220.3 26.3,218.5 "/>
<polygon class="st4" points="54.7,226.8 57.1,226.9 56,224.7 "/>
<polygon class="st4" points="80,183.8 80,181.4 77.9,182.6 "/>
<polygon class="st4" points="67.2,167.7 66.1,165.6 64.8,167.6 "/>
<polygon class="st4" points="16.6,181.1 18.8,180 16.8,178.7 "/>
<polygon class="st4" points="42.8,227 41.4,225.1 40.4,227.2 "/>
<polygon class="st4" points="13.3,196.5 14.5,194.4 12.1,194.4 "/>
<path class="st0" d="M47.5,144.2c0,9.6,2.4,17.3,5.4,17.3"/>
<line class="st0" x1="37.3" y1="14" x2="37.3" y2="21.5"/>
<polygon points="35.8,21 37.3,23.8 39,21 "/>
<line class="st0" x1="49.7" y1="41.7" x2="49.7" y2="34.2"/>
<polygon points="51.3,34.7 49.7,31.9 48.1,34.7 "/>
<line class="st0" x1="45.2" y1="31.9" x2="45.2" y2="39.4"/>
<polygon points="43.7,38.9 45.2,41.7 46.8,38.9 "/>
<line class="st0" x1="47.5" y1="47.9" x2="47.5" y2="55.4"/>
<polygon points="45.9,54.9 47.5,57.7 49.1,54.9 "/>
<path class="st1" d="M55.9,57.7"/>
<path class="st1" d="M57.1,51.7"/>
<path class="st1" d="M47.5,50"/>
<path class="st1" d="M52.6,60.8"/>
<line class="st0" x1="47.5" y1="66.1" x2="47.5" y2="71.3"/>
<polygon points="45.9,66.6 47.5,63.8 49.1,66.6 "/>
<polygon points="45.9,70.8 47.5,73.6 49.1,70.8 "/>
<line class="st0" x1="47.5" y1="82.1" x2="47.5" y2="87.3"/>
<polygon points="45.9,82.5 47.5,79.8 49.1,82.5 "/>
<polygon points="45.9,86.8 47.5,89.6 49.1,86.8 "/>
<line class="st0" x1="104.5" y1="98" x2="104.5" y2="103.2"/>
<polygon points="102.9,98.5 104.5,95.7 106.1,98.5 "/>
<polygon points="102.9,102.8 104.5,105.5 106.1,102.8 "/>
<line class="st0" x1="47.5" y1="98" x2="47.5" y2="103.2"/>
<polygon points="45.9,98.5 47.5,95.7 49.1,98.5 "/>
<polygon points="45.9,102.8 47.5,105.5 49.1,102.8 "/>
<line class="st0" x1="47.5" y1="114" x2="47.5" y2="119.2"/>
<polygon points="45.9,114.4 47.5,111.7 49.1,114.4 "/>
<polygon points="45.9,118.7 47.5,121.5 49.1,118.7 "/>
<line class="st0" x1="47.5" y1="127.6" x2="47.5" y2="135.1"/>
<polygon points="45.9,134.7 47.5,137.4 49.1,134.7 "/>
<line class="st0" x1="87.4" y1="141" x2="53.7" y2="141"/>
<polygon points="86.9,139.4 89.7,141 86.9,142.6 "/>
<polygon points="54.2,139.4 51.4,141 54.2,142.6 "/>
<path class="st0" d="M47.3,49.7c1.9-1.1,4.2-0.8,5.4,0.6c1.3,1.6,1.5,4.6,1.4,4.7"/>
<path class="st1" d="M49,51"/>
<path class="st1" d="M54.1,55"/>
<path class="st1" d="M54.1,47.5"/>
<polygon points="52.5,54.5 54.1,57.3 55.7,54.5 "/>
<path class="st3" d="M79.7,211.7c2.3-6.1,3.8-12.5,4.3-18.7c-0.2,0.1-0.3,0.1-0.5,0.1c-0.5,6.2-1.9,12.4-4.2,18.5
	C79.4,211.6,79.6,211.6,79.7,211.7z"/>
<polygon class="st4" points="79.1,213 80.8,211.2 78.4,210.6 "/>
<path class="st3" d="M76.2,211.2c2.4-6.6,3.9-13.3,4.4-19.9c-0.2,0.1-0.3,0.1-0.5,0.1c-0.5,6.6-1.9,13.1-4.3,19.7
	C75.9,211.1,76.1,211.2,76.2,211.2z"/>
<polygon class="st4" points="78.9,192.9 81.3,193 80.2,190.8 "/>
</svg>
