<?xml version="1.0" encoding="utf-8"?>
<!-- Generator: Adobe Illustrator 25.3.1, SVG Export Plug-In . SVG Version: 6.00 Build 0)  -->
<svg version="1.1" id="Layer_1" xmlns="http://www.w3.org/2000/svg" xmlns:xlink="http://www.w3.org/1999/xlink" x="0px" y="0px"
	 viewBox="0 0 111.7 237.6" style="enable-background:new 0 0 111.7 237.6;" xml:space="preserve">
<style type="text/css">
	.st0{font-family:'ArialMT';}
	.st1{font-size:4.35px;}
	.st2{fill:none;stroke:#000000;stroke-miterlimit:10;}
	.st3{stroke:#000000;stroke-width:0.25;stroke-miterlimit:10;}
	.st4{stroke:#000000;stroke-width:0.5;stroke-miterlimit:10;}
	.st5{fill:none;stroke:#000000;stroke-width:0.75;stroke-miterlimit:10;}
</style>
<text transform="matrix(1 0 0 1 69.45 99.46)" class="st0 st1">3-PH</text>
<text transform="matrix(1 0 0 1 79.36 99.46)" class="st0 st1">P</text>
<line class="st2" x1="85.5" y1="98" x2="96.7" y2="97.9"/>
<polygon points="86,99.6 83.2,98 86,96.4 "/>
<polygon points="96.3,99.5 99,97.9 96.3,96.3 "/>
<line class="st2" x1="55.2" y1="98" x2="66.5" y2="97.9"/>
<polygon points="55.7,99.6 53,98 55.7,96.4 "/>
<polygon points="66,99.5 68.8,97.9 66,96.3 "/>
<text transform="matrix(1 0 0 1 39.5 3.73)" class="st0 st1">Glucose</text>
<text transform="matrix(1 0 0 1 43.17 19.69)" class="st0 st1">G6</text>
<text transform="matrix(1 0 0 1 48.97 19.69)" class="st0 st1">P</text>
<text transform="matrix(1 0 0 1 43.54 35.64)" class="st0 st1">F6</text>
<text transform="matrix(1 0 0 1 48.62 35.64)" class="st0 st1">P</text>
<text transform="matrix(1 0 0 1 40.27 51.6)" class="st0 st1">F1,6B</text>
<text transform="matrix(1 0 0 1 51.88 51.6)" class="st0 st1">P</text>
<text transform="matrix(1 0 0 1 69.27 67.56)" class="st0 st1">DHA</text>
<text transform="matrix(1 0 0 1 78.46 67.56)" class="st0 st1">P</text>
<text transform="matrix(1 0 0 1 43.17 67.56)" class="st0 st1">G3</text>
<text transform="matrix(1 0 0 1 48.97 67.56)" class="st0 st1">P</text>
<text transform="matrix(1 0 0 1 98.25 115.42)" class="st0 st1">Serine</text>
<text transform="matrix(1 0 0 1 99.7 99.46)" class="st0 st1">3-PS</text>
<text transform="matrix(1 0 0 1 39.14 83.51)" class="st0 st1">1,3-BPG</text>
<text transform="matrix(1 0 0 1 43.13 99.46)" class="st0 st1">3PG</text>
<text transform="matrix(1 0 0 1 43.13 115.42)" class="st0 st1">2PG</text>
<text transform="matrix(1 0 0 1 43.17 131.38)" class="st0 st1">PE</text>
<text transform="matrix(1 0 0 1 48.97 131.38)" class="st0 st1">P</text>
<text transform="matrix(1 0 0 1 38.9 147.32)" class="st0 st1">Pyruvate</text>
<text transform="matrix(1 0 0 1 97.4 147.32)" class="st0 st1">Lactate</text>
<line class="st2" x1="0" y1="154.5" x2="97.9" y2="154.5"/>
<path class="st3" d="M81,195.3h-0.1c0.4,2,0.6,4,0.6,6.1l0,0c0.1,0,0.2-0.1,0.3-0.1c0-2-0.2-4-0.6-6H81z"/>
<path class="st3" d="M61.8,170.2c-8.9-4.2-19.2-4.3-28.2-0.3c0,0.1,0.1,0.2,0.1,0.3c8.9-3.9,19.1-3.8,27.9,0.3
	C61.8,170.4,61.8,170.3,61.8,170.2z"/>
<path class="st3" d="M21.9,178.6c-2,2.2-3.7,4.6-5,7.3c0.1,0,0.2,0.1,0.3,0.1c1.3-2.6,3-5,5-7.2C22.1,178.7,22,178.6,21.9,178.6z"/>
<path class="st3" d="M13.5,201.1c0-2,0.2-4,0.6-6h-0.3c-0.4,2-0.6,4-0.6,6C13.3,201.1,13.4,201.1,13.5,201.1z"/>
<path class="st3" d="M18.1,218.6c-1.6-2.7-2.8-5.7-3.6-8.8h-0.3l0,0c0.8,3.1,2,6.2,3.7,8.9C18,218.7,18.1,218.6,18.1,218.6z"/>
<path class="st3" d="M61.1,232.9c3.3-1.4,6.4-3.4,9.1-5.7c-0.1-0.1-0.2-0.1-0.2-0.2c-2.7,2.4-5.7,4.3-9,5.7
	C61,232.7,61,232.8,61.1,232.9z"/>
<path class="st3" d="M33.4,232.3c-3.2-1.5-6.1-3.4-8.7-5.8c-0.1,0.1-0.1,0.2-0.2,0.2c2.6,2.4,5.6,4.3,8.8,5.8
	C33.3,232.5,33.4,232.4,33.4,232.3z"/>
<path class="st3" d="M77.8,185.3c-1.3-2.5-3-4.9-4.9-7v0.1c0,0.1-0.1,0.1-0.1,0.2c1.9,2.1,3.5,4.4,4.8,6.9
	C77.6,185.4,77.7,185.3,77.8,185.3z"/>
<text transform="matrix(1 0 0 1 34.42 236.17)" class="st0 st1">Succinyl-Co</text>
<text transform="matrix(1 0 0 1 57.63 236.17)" class="st0 st1">A</text>
<text transform="matrix(1 0 0 1 13.95 175.2)" class="st0 st1">Oxaloacetate</text>
<text transform="matrix(1 0 0 1 57.86 175.75)" class="st0 st1">Acetyl-Co</text>
<text transform="matrix(1 0 0 1 76.72 175.75)" class="st0 st1">A</text>
<text transform="matrix(1 0 0 1 8.77 191.12)" class="st0 st1">Malate</text>
<text transform="matrix(1 0 0 1 10.99 223.51)" class="st0 st1">Succinate</text>
<text transform="matrix(1 0 0 1 73.81 191.67)" class="st0 st1">Citrate</text>
<text transform="matrix(1 0 0 1 4.08 207.04)" class="st0 st1">Fumarate</text>
<text transform="matrix(1 0 0 1 72.76 207.59)" class="st0 st1">Isocitrate</text>
<text transform="matrix(1 0 0 1 59.37 224.05)" class="st0 st1">α-ketoglutarate</text>
<polygon class="st4" points="22.8,177.8 20.5,178.6 22.3,180.2 "/>
<polygon class="st4" points="14.2,193.7 12.6,195.5 14.9,196 "/>
<polygon class="st4" points="14.3,209.6 13.7,212 16,211.3 "/>
<polygon class="st4" points="23.9,226.2 24.7,228.4 26.3,226.6 "/>
<polygon class="st4" points="60.7,232.9 63.1,233 62,230.8 "/>
<polygon class="st4" points="81.6,202 82.8,199.9 80.4,199.9 "/>
<polygon class="st4" points="78,185.9 78,183.5 75.9,184.7 "/>
<polygon class="st4" points="62.2,170.8 61.1,168.7 59.8,170.7 "/>
<polygon class="st4" points="16.6,186.2 18.8,185.1 16.8,183.8 "/>
<polygon class="st4" points="80.9,193.7 80,196 82.4,195.6 "/>
<polygon class="st4" points="33.8,232.5 32.4,230.5 31.4,232.7 "/>
<polygon class="st4" points="13.3,201.6 14.5,199.6 12.1,199.6 "/>
<path class="st5" d="M47.5,149.3c0,10.1,2.4,18.3,5.4,18.3"/>
<path class="st4" d="M80.4,217.2l0.3,0.1c0.9-1.8,1.6-3.8,2.1-5.7h-0.3C82,213.6,81.3,215.4,80.4,217.2z"/>
<path class="st4" d="M77,217.2l0.3,0.1c0.9-1.8,1.6-3.8,2.1-5.7h-0.3C78.5,213.6,77.8,215.4,77,217.2z"/>
<polygon class="st4" points="80.1,218.4 82,216.9 79.8,216 "/>
<polygon class="st4" points="79.5,210.7 77.7,212.3 80,213 "/>
<line class="st2" x1="47.3" y1="5.1" x2="47.3" y2="12.6"/>
<polygon points="45.8,12.1 47.3,14.9 49,12.1 "/>
<line class="st2" x1="47.5" y1="23.4" x2="47.5" y2="28.6"/>
<polygon points="45.9,23.8 47.5,21.1 49.1,23.8 "/>
<polygon points="45.9,28.1 47.5,30.9 49.1,28.1 "/>
<line class="st2" x1="49.7" y1="46.8" x2="49.7" y2="39.3"/>
<polygon points="51.3,39.8 49.7,37 48.1,39.8 "/>
<line class="st2" x1="45.2" y1="37" x2="45.2" y2="44.5"/>
<polygon points="43.7,44 45.2,46.8 46.8,44 "/>
<line class="st2" x1="47.5" y1="53" x2="47.5" y2="60.5"/>
<polygon points="45.9,60 47.5,62.8 49.1,60 "/>
<line class="st2" x1="47.5" y1="55.2" x2="67.8" y2="62"/>
<polygon points="66.8,63.4 70,62.8 67.9,60.4 "/>
<line class="st2" x1="57.6" y1="65.9" x2="66.2" y2="65.8"/>
<polygon points="58.1,67.5 55.3,65.9 58.1,64.3 "/>
<polygon points="65.8,67.4 68.5,65.8 65.8,64.2 "/>
<line class="st2" x1="47.5" y1="71.2" x2="47.5" y2="76.4"/>
<polygon points="45.9,71.7 47.5,68.9 49.1,71.7 "/>
<polygon points="45.9,76 47.5,78.7 49.1,76 "/>
<line class="st2" x1="47.5" y1="87.2" x2="47.5" y2="92.4"/>
<polygon points="45.9,87.7 47.5,84.9 49.1,87.7 "/>
<polygon points="45.9,91.9 47.5,94.7 49.1,91.9 "/>
<line class="st2" x1="104.5" y1="103.1" x2="104.5" y2="108.3"/>
<polygon points="102.9,103.6 104.5,100.8 106.1,103.6 "/>
<polygon points="102.9,107.9 104.5,110.6 106.1,107.9 "/>
<line class="st2" x1="47.5" y1="103.1" x2="47.5" y2="108.3"/>
<polygon points="45.9,103.6 47.5,100.8 49.1,103.6 "/>
<polygon points="45.9,107.9 47.5,110.6 49.1,107.9 "/>
<line class="st2" x1="47.5" y1="119.1" x2="47.5" y2="124.3"/>
<polygon points="45.9,119.6 47.5,116.8 49.1,119.6 "/>
<polygon points="45.9,123.8 47.5,126.6 49.1,123.8 "/>
<line class="st2" x1="47.5" y1="132.8" x2="47.5" y2="140.2"/>
<polygon points="45.9,139.8 47.5,142.5 49.1,139.8 "/>
<line class="st2" x1="93.4" y1="146.2" x2="59.7" y2="146.2"/>
<polygon points="92.9,144.6 95.7,146.2 92.9,147.8 "/>
<polygon points="60.2,144.6 57.4,146.2 60.2,147.8 "/>
</svg>
