<svg id="svg_viewer_id" width="1416" height="1418.8" xmlns="http://www.w3.org/2000/svg" xmlns:xlink="http://www.w3.org/1999/xlink"><g transform="translate(568.4,272.5090909090909) scale(0.2305846153846154,0.2305846153846154)"><defs><marker id="_core"><path/></marker><marker id="_protein"><path/></marker><marker id="_metabolite"><path/></marker></defs><g><path id="_CS,_3_Furoic_acid" class="link" stroke-width="10" d="M1005,1540A0,0 0 0,1 950.0000000000001,100" style="fill: none; stroke:rgb(245, 159, 128); visibility: visible; opacity: 1;"/><path id="_CS,_Citric_acid" class="link" stroke-width="10" d="M1005,1540A0,0 0 0,1 2010.6601717798214,539.3398282201788" style="fill: none; stroke:rgb(243, 149, 118); visibility: visible; opacity: 1;"/><path id="_CS,_Citramalic_acid" class="link" stroke-width="10" d="M1005,1540A0,0 0 0,1 -110.66017177982144,539.3398282201788" style="fill: none; stroke:rgb(235, 126, 98); visibility: visible; opacity: 1;"/><path id="_CS,_Dephosphocoenzyme_A" class="link" stroke-width="10" d="M1005,1540A0,0 0 0,1 2010.6601717798214,2660.660171779821" style="fill: none; stroke:rgb(246, 192, 167); visibility: visible; opacity: 1;"/><path id="_CS,_3_Hydroxybutyryl_coenzyme_A" class="link" stroke-width="10" d="M1005,1540A0,0 0 0,1 -550,1600.0000000000002" style="fill: none; stroke:rgb(245, 156, 125); visibility: visible; opacity: 1;"/><path id="_CS,_Coenzyme_A" class="link" stroke-width="10" d="M1005,1540A0,0 0 0,1 2450,1600" style="fill: none; stroke:rgb(247, 169, 139); visibility: visible; opacity: 1;"/><path id="_CS,_3_Phosphoadenosine_5_phosphosulfate" class="link" stroke-width="10" d="M1005,1540A0,0 0 0,1 -110.66017177982121,2660.660171779821" style="fill: none; stroke:rgb(212, 78, 65); visibility: visible; opacity: 1;"/><path id="_CS,_Pyruvate" class="link" stroke-width="10" d="M1005,1540A0,0 0 0,1 950.0000000000001,3100" style="fill: none; stroke:rgb(245, 156, 125); visibility: visible; opacity: 1;"/></g><g class="node" id="_CS"><rect id="_CS" transform="translate(1005,1540)" fill="orange" stroke="black" stroke-width="5px" width="70px" height="70px" x="-35" y="-35" border-top-right-radius="25px" /><text id="_CS" transform="translate(1005,1540)"><tspan id="_CS" x="46px" y=".31em" style="font-size: 64px; font-weight: bold;">CS</tspan></text></g><g class="node" id="_3_Furoic_acid" style="visibility: visible; opacity: 1;"><circle fill="#343d46" stroke="black" stroke-width="3px" r="24px" id="_3_Furoic_acid" transform="translate(950.0000000000001,100)"/><text id="_3_Furoic_acid" text-anchor="start" x="45" y=".35em" transform="translate(950.0000000000001,100) rotate(-90)"><tspan id="_3_Furoic_acid" style="font-size: 46px; font-weight: bold;">3-Furoic acid</tspan></text></g><g class="node" id="_Citric_acid" style="visibility: visible; opacity: 1;"><circle fill="#343d46" stroke="black" stroke-width="3px" r="24px" id="_Citric_acid" transform="translate(2010.6601717798214,539.3398282201788)" style="fill: lightgrey;"/><text id="_Citric_acid" text-anchor="start" x="45" y=".35em" transform="translate(2010.6601717798214,539.3398282201788) rotate(-45)"><tspan id="_Citric_acid" style="font-size: 46px; font-weight: bold;">Citrate</tspan></text></g><g class="node" id="_Coenzyme_A" style="visibility: visible; opacity: 1;"><circle fill="#343d46" stroke="black" stroke-width="3px" r="24px" id="_Coenzyme_A" transform="translate(2450,1600)"/><text id="_Coenzyme_A" text-anchor="start" x="45" y=".35em" transform="translate(2450,1600) rotate(0)"><tspan id="_Coenzyme_A" style="font-size: 46px; font-weight: bold;">Coenzyme A</tspan></text></g><g class="node" id="_Dephosphocoenzyme_A" style="visibility: visible; opacity: 1;"><circle fill="#343d46" stroke="black" stroke-width="3px" r="24px" id="_Dephosphocoenzyme_A" transform="translate(2010.6601717798214,2660.660171779821)"/><text id="_Dephosphocoenzyme_A" text-anchor="start" x="45" y=".35em" transform="translate(2010.6601717798214,2660.660171779821) rotate(45)"><tspan id="_Dephosphocoenzyme_A" style="font-size: 46px; font-weight: bold;">Dephosphocoenzyme A</tspan></text></g><g class="node" id="_Pyruvate" style="visibility: visible; opacity: 1;"><circle fill="#343d46" stroke="black" stroke-width="3px" r="24px" id="_Pyruvate" transform="translate(950.0000000000001,3100)"/><text id="_Pyruvate" text-anchor="end" x="-45" y=".40em" transform="translate(950.0000000000001,3100) rotate(-90)"><tspan id="_Pyruvate" style="font-size: 46px; font-weight: bold;">Pyruvate</tspan></text></g><g class="node" id="_3_Phosphoadenosine_5_phosphosulfate" style="visibility: visible; opacity: 1;"><circle fill="#343d46" stroke="black" stroke-width="3px" r="24px" id="_3_Phosphoadenosine_5_phosphosulfate" transform="translate(-110.66017177982121,2660.660171779821)"/><text id="_3_Phosphoadenosine_5_phosphosulfate" text-anchor="end" x="-45" y=".40em" transform="translate(-110.66017177982121,2660.660171779821) rotate(-45)"><tspan id="_3_Phosphoadenosine_5_phosphosulfate" style="font-size: 46px; font-weight: bold;">3-Phosphoadenosine 5-phosphosulfate</tspan></text></g><g class="node" id="_3_Hydroxybutyryl_coenzyme_A" style="visibility: visible; opacity: 1;"><circle fill="#343d46" stroke="black" stroke-width="3px" r="24px" id="_3_Hydroxybutyryl_coenzyme_A" transform="translate(-550,1600.0000000000002)"/><text id="_3_Hydroxybutyryl_coenzyme_A" text-anchor="end" x="-45" y=".40em" transform="translate(-550,1600.0000000000002) rotate(0)"><tspan id="_3_Hydroxybutyryl_coenzyme_A" style="font-size: 46px; font-weight: bold;">3-Hydroxybutyryl coenzyme A</tspan></text></g><g class="node" id="_Citramalic_acid" style="visibility: visible; opacity: 1;"><circle fill="#343d46" stroke="black" stroke-width="3px" r="24px" id="_Citramalic_acid" transform="translate(-110.66017177982144,539.3398282201788)" style="fill: lightgrey;"/><text id="_Citramalic_acid" text-anchor="end" x="-45" y=".40em" transform="translate(-110.66017177982144,539.3398282201788) rotate(45)"><tspan id="_Citramalic_acid" style="font-size: 46px; font-weight: bold;">Citramalic acid</tspan></text></g></g></svg>