<svg id="Layer_1" data-name="Layer 1" xmlns="http://www.w3.org/2000/svg" width="3.97622in" height="3.97222in" viewBox="0 0 286.28809 286"><defs><style>.cls-1{fill:#ffde17;}.cls-2{fill:none;stroke:#026094;stroke-miterlimit:10;stroke-width:16px;}.cls-3{fill:#27aae1;}.cls-4{fill:#2b3990;}</style></defs><circle class="cls-1" cx="143.70681" cy="142.91411" r="135"/><circle class="cls-2" cx="143" cy="143" r="135"/><path class="cls-3" d="M210.24952,32.37439a74.42682,74.42682,0,0,0-16.948,5.80217,76.3068,76.3068,0,0,0-15.04873,9.64813,64.30065,64.30065,0,0,0-10.55049,10.491,72.97845,72.97845,0,0,0-9.57468,14.9382c-3.1888,6.9743-5.39083,14.3039-8.36445,21.35834l1.26011-2.986A50.60254,50.60254,0,0,1,144.6448,102.751l1.95455-2.52985a55.0084,55.0084,0,0,1-9.55676,9.37725l2.52985-1.95454c-11.95305,9.1933-26.31129,14.11709-39.66413,20.80427a99.59515,99.59515,0,0,0-21.0779,13.84648,63.44187,63.44187,0,0,0-14.62263,19.121c-3.93762,7.775-6.78244,16.04614-10.15465,24.06881l1.26011-2.986a71.02175,71.02175,0,0,1-8.67579,15.7801l1.95455-2.52985c-2.242,2.87562-4.93031,5.10063-7.52818,7.61963-5.73638,5.56225-9.12584,13.39582-5.84059,21.18068a18.62389,18.62389,0,0,0,8.29235,8.88737c1.92788,1.12355,3.83944,2.27172,5.721,3.47153q5.6441,3.599,10.95183,7.68742l-2.52984-1.95455a154.89625,154.89625,0,0,1,12.17914,10.45987,12.68823,12.68823,0,0,0,12.16183,3.21465,12.82446,12.82446,0,0,0,8.7305-8.73049q.74477-2.239,1.64873-4.41654l-1.26011,2.986a61.54006,61.54006,0,0,1,7.72252-13.31233l-1.95455,2.52985q.91827-1.1877,1.88632-2.33337L79.14075,217.89054l-3.34,6.06924,21.58677,12.618q5.01156-10.53588,10.02338-21.07165c3.04875-6.39824,6.2101-12.77265,10.54616-18.41509l-1.95455,2.52985a68.05562,68.05562,0,0,1,12.06771-11.891l-2.52984,1.95455c8.40208-6.44728,17.926-11.20982,27.64849-15.3166l-2.986,1.26011c4.13275-1.73736,8.33514-3.30083,12.46923-5.03377a90.03545,90.03545,0,0,0,8.93958-4.111,52.86733,52.86733,0,0,0,8.05694-5.68631,48.04319,48.04319,0,0,0,9.98286-12.02064,71.79412,71.79412,0,0,0,6.39715-14.27445c1.4353-4.23458,2.62009-8.55511,4.33046-12.69259l-1.2601,2.986a32.32362,32.32362,0,0,1,3.95906-7.08049l-1.95454,2.52985a20.91488,20.91488,0,0,1,3.41194-3.46087l-2.52984,1.95455c.37759-.2893.76154-.56563,1.15571-.83192a13.30434,13.30434,0,0,0,5.7445-7.47039,12.50314,12.50314,0,0,0-18.36248-14.11637,20.511,20.511,0,0,0-10.41184,18.18531l24.55349-3.323q-.08544-.38761-.133-.78165l.44651,3.323a10.01983,10.01983,0,0,1,.04269-2.30272l-.44651,3.323a12.41391,12.41391,0,0,1,.75909-2.59318l-1.2601,2.986a20.58045,20.58045,0,0,1,2.54237-4.15634l-1.95455,2.52985A133.40387,133.40387,0,0,1,216.12575,101.447a142.41705,142.41705,0,0,1,12.38887-10.99079l-2.52985,1.95455a73.106,73.106,0,0,1,15.83281-9.5301l-2.986,1.26011a51.50442,51.50442,0,0,1,11.65426-3.37488,12.52426,12.52426,0,0,0,8.73049-8.73049,12.76431,12.76431,0,0,0-3.21466-12.16183,70.5973,70.5973,0,0,0-12.71376-10.73069c-6.02666-4.04486-13.26807-7.97-20.70563-5.87646-3.01728.8493-5.70474,2.66259-8.35872,4.26867q-2.77338,1.67833-5.5286,3.38644c-3.63221,2.25841-7.22942,4.57492-10.75042,7.00366-15.16766,10.46243-29.90771,23.23849-37.79148,40.28869-4.094,8.85408-6.58449,18.2755-10.36136,27.24517l1.26011-2.986a48.78088,48.78088,0,0,1-6.02786,10.71988l1.95455-2.52985a30.38128,30.38128,0,0,1-5.22326,5.24394l2.52984-1.95455a31.16078,31.16078,0,0,1-6.60444,3.77065l2.986-1.26011c-3.31309,1.3822-6.764,2.36265-10.18238,3.44188a92.783,92.783,0,0,0-11.89529,4.69,80.27,80.27,0,0,0-17.78645,12.03625,108.18616,108.18616,0,0,0-14.76163,16.25055,141.18612,141.18612,0,0,0-10.64277,16.151q-2.68154,4.703-5.09029,9.55459c-1.55489,3.1137-2.87531,6.427-5.00609,9.20688l1.95455-2.52984a13.11777,13.11777,0,0,1-1.92912,1.96969L67.857,205.2794a9.62287,9.62287,0,0,1-1.72461,1.04951l2.986-1.26011a9.59984,9.59984,0,0,1-1.30352.43722l15.823,12.05349a19.30907,19.30907,0,0,1,.06287-4.04326l-.44651,3.323a22.96794,22.96794,0,0,1,1.49121-5.42433l-1.2601,2.986a38.02441,38.02441,0,0,1,4.92179-8.20191l-1.95455,2.52984c4.87271-6.28408,10.765-11.62347,15.25737-18.2361a37.12822,37.12822,0,0,0,5.33445-11.68289c.74047-2.98907.798-6.12851,1.92421-9.02117l-1.2601,2.986a9.54532,9.54532,0,0,1,1.12618-1.994l-1.95455,2.52984a7.94215,7.94215,0,0,1,1.16705-1.16058l-2.52985,1.95455.27661-.20033c2.70994-1.9626,4.82559-4.1335,5.7445-7.47039a12.77488,12.77488,0,0,0-1.2601-9.632,12.61684,12.61684,0,0,0-7.47039-5.7445c-3.09434-.70479-6.95045-.68193-9.632,1.2601-2.74846,1.9905-5.25179,4.1017-6.784,7.23258a27.08691,27.08691,0,0,0-2.41055,6.7537c-.60875,3.14458-.93728,6.226-2.167,9.2188l1.2601-2.986a35.46492,35.46492,0,0,1-4.475,7.44282l1.95455-2.52984c-1.94089,2.51132-4.0795,4.85443-6.22711,7.18837a119.94745,119.94745,0,0,0-8.01679,9.61727c-4.85736,6.5241-8.41627,15.03607-7.67228,23.30439a12.44227,12.44227,0,0,0,1.70662,6.309,9.4465,9.4465,0,0,0,3.21947,3.50712A12.34754,12.34754,0,0,0,74.46087,229.613c6.53748-1.68973,11.45195-6.74114,14.5452-12.54728,1.9-3.56642,3.55-7.26376,5.45266-10.832A148.493,148.493,0,0,1,107.745,185.34745l-1.95455,2.52984a91.07815,91.07815,0,0,1,15.87888-16.17993l-2.52984,1.95455a66.71409,66.71409,0,0,1,14.47681-8.55255l-2.986,1.2601c4.7848-2.00781,9.83873-3.19929,14.69479-5.00317,6.32941-2.35119,12.10218-5.39419,16.90119-10.23982,7.38249-7.4542,11.30653-17.28339,14.69575-27.01348,1.653-4.74548,3.198-9.53273,5.1524-14.16634l-1.26011,2.986a68.83882,68.83882,0,0,1,8.82144-14.98783l-1.95455,2.52985a100.67811,100.67811,0,0,1,17.94237-17.4645l-2.52984,1.95455c4.52416-3.49257,9.24-6.72543,14.04816-9.81289q3.56564-2.2896,7.18631-4.49183a63.43418,63.43418,0,0,1,7.50461-4.39934l-2.986,1.2601a6.955,6.955,0,0,1,1.1659-.31573l-3.323.44651a3.6781,3.6781,0,0,1,.84312-.01278l-3.323-.44651a7.68531,7.68531,0,0,1,1.69592.46975l-2.986-1.26011a52.92739,52.92739,0,0,1,10.82365,6.5545l-2.52985-1.95455a58.26524,58.26524,0,0,1,7.11044,6.55936l5.51583-20.89232c-10.58941,1.71854-20.66614,6.81321-29.20034,13.19633a197.20473,197.20473,0,0,0-24.50424,22.417,44.0526,44.0526,0,0,0-7.01817,8.99334,23.93627,23.93627,0,0,0-2.56377,6.45485,23.66866,23.66866,0,0,0,.02473,10.10738,12.48733,12.48733,0,0,0,5.7445,7.47039,12.88192,12.88192,0,0,0,7.97049,1.48336,11.87928,11.87928,0,0,0,7.17733-3.43791,12.66849,12.66849,0,0,0,3.66117-8.83883,9.6643,9.6643,0,0,1,.057-1.43369l-.44652,3.323a9.35311,9.35311,0,0,1,.58257-2.06833l-1.26011,2.986a9.69988,9.69988,0,0,1,1.10817-1.84544l-1.95455,2.52985a9.70805,9.70805,0,0,1,1.26738-1.26676l-2.52984,1.95455a9.66558,9.66558,0,0,1,1.20576-.77772l-12.618-21.58676a35.80727,35.80727,0,0,0-9.67015,9.61582,48.15821,48.15821,0,0,0-4.94331,10.069c-2.14661,5.3999-3.47307,11.08549-5.72128,16.44859l1.2601-2.986a49.22005,49.22005,0,0,1-6.02409,10.52494l1.95455-2.52985a36.41477,36.41477,0,0,1-6.19375,6.28971l2.52984-1.95455a48.5941,48.5941,0,0,1-10.69513,5.95019l2.986-1.26011c-13.29423,5.59959-26.90238,10.42772-38.92365,18.58883a84.90711,84.90711,0,0,0-16.77,14.412,92.697,92.697,0,0,0-13.03347,20.33106c-3.90167,8.01276-7.67008,16.09264-11.49829,24.14073-1.46839,3.087-2.19674,6.23072-1.26011,9.632a12.74847,12.74847,0,0,0,5.7445,7.47039,12.6173,12.6173,0,0,0,9.632,1.26011,12.7985,12.7985,0,0,0,7.47039-5.7445l3.34-6.06924a12.57343,12.57343,0,0,0-3.21947-16.1251,11.91241,11.91241,0,0,0-7.57392-2.68389c-3.15129.14115-6.72209,1.15613-8.83883,3.66117a71.35136,71.35136,0,0,0-14.47222,25.57808l20.89232-5.51584A178.10768,178.10768,0,0,0,70.492,221.26112q-3.85528-2.85334-7.88642-5.458c-2.6358-1.70324-5.49434-3.13571-8.05224-4.946l2.52984,1.95455a7.03631,7.03631,0,0,1-1.0633-1.00982l1.95455,2.52985a6.00085,6.00085,0,0,1-.53433-.90771l1.26011,2.986a5.38014,5.38014,0,0,1-.26173-.923l.44652,3.323a5.17256,5.17256,0,0,1,.01824-1.244l-.44651,3.323a7.14035,7.14035,0,0,1,.37477-1.244l-1.26011,2.986a11.11569,11.11569,0,0,1,1.30652-2.12716l-1.95455,2.52984c1.974-2.45326,4.57835-4.26867,6.73422-6.54869a60.947,60.947,0,0,0,7.25832-9.46175c3.73588-5.95662,6.361-12.58224,8.959-19.08744,1.32906-3.32789,2.61884-6.67147,4.0086-9.9748l-1.26011,2.986a73.05024,73.05024,0,0,1,9.04926-16.37036L89.718,167.10646a55.17131,55.17131,0,0,1,9.52634-9.3837l-2.52984,1.95455c11.13373-8.58354,24.43045-13.41,36.976-19.45942,13.86189-6.6841,27.23523-15.56812,35.392-28.97409,4.97255-8.17263,7.35391-17.58973,11.01454-26.35486l-1.2601,2.986A62.82285,62.82285,0,0,1,186.875,74.0501L184.9205,76.58a65.06324,65.06324,0,0,1,11.30389-11.30719l-2.52985,1.95455a64.93926,64.93926,0,0,1,14.097-8.29693l-2.986,1.26011a61.81608,61.81608,0,0,1,12.08993-3.70912c2.94358-.57917,5.99879-3.22976,7.47039-5.7445a12.49928,12.49928,0,0,0-4.4844-17.10237,13.87309,13.87309,0,0,0-9.632-1.26011Z" transform="translate(-0.71191 -0.44549)"/><path class="cls-4" d="M224.40394,28.8334c-17.40353-.30259-34.347,6.09116-48.01235,16.69713a83.32294,83.32294,0,0,0-17.9019,19.1422A77.85149,77.85149,0,0,0,152.132,75.99318c-2.05845,4.51713-3.59619,9.21735-5.20775,13.9049a55.45675,55.45675,0,0,1-6.22542,13.52729,35.55254,35.55254,0,0,1-10.09408,9.52071c-8.66106,5.62074-18.73526,8.18329-28.33456,11.68542-9.63148,3.51388-18.4453,8.32029-25.85141,15.4951-7.33447,7.1054-12.48214,15.7507-16.52016,25.061-4.06467,9.37179-7.289,19.31721-12.9889,27.877-4.648,6.98015-11.41114,13.57855-19.85794,15.40608a19.9232,19.9232,0,0,1-5.9613.31482,2.5196,2.5196,0,0,0-2.5,2.5,2.55187,2.55187,0,0,0,2.5,2.5c9.17866.79729,17.65726-4.03359,23.89139-10.4153,7.06846-7.23579,11.26257-16.38078,15.0767-25.61,3.89949-9.43578,7.54767-19.07977,13.7964-27.27306A60.349,60.349,0,0,1,95.644,132.74241c9.65683-4.6416,20.2437-6.93716,29.9835-11.39812,8.90948-4.08066,16.935-10.226,21.565-19.02931,4.55715-8.66475,6.39321-18.44377,10.88508-27.15137a77.832,77.832,0,0,1,15.4841-20.62839C185.588,43.06677,201.49711,35.24637,218.1719,34.00415c2.07406-.15451,4.15274-.2069,6.232-.17075,3.2187.056,3.2192-4.944,0-5Z" transform="translate(-0.71191 -0.44549)"/><path class="cls-4" d="M269.46305,77.607c-17.3173-.30206-34.13627,6.095-47.71574,16.66167a82.75775,82.75775,0,0,0-17.7348,19.02342,77.87622,77.87622,0,0,0-6.4228,11.499c-2.0426,4.524-3.56431,9.229-5.17477,13.91666a54.68426,54.68426,0,0,1-6.1124,13.2835,35.39456,35.39456,0,0,1-10.02068,9.49121c-8.59769,5.60122-18.60563,8.1606-28.14134,11.65162-9.51126,3.48206-18.21575,8.23428-25.54068,15.31248-7.25258,7.00828-12.384,15.53394-16.38272,24.72776-4.07333,9.36537-7.26153,19.30751-12.8848,27.91C88.724,248.13406,81.97191,254.854,73.48723,256.72205a19.71448,19.71448,0,0,1-5.97984.32742,2.51956,2.51956,0,0,0-2.5,2.5,2.55193,2.55193,0,0,0,2.5,2.5c9.22132.80331,17.71294-4.12282,23.92205-10.57228,6.97811-7.24824,11.10949-16.3714,14.88587-25.56058,3.84081-9.34593,7.46338-18.86325,13.61861-26.98976a59.89518,59.89518,0,0,1,21.84019-17.78966c9.53663-4.56349,19.975-6.85154,29.58062-11.26807,8.86447-4.07576,16.82893-10.20982,21.427-18.978,4.50745-8.59532,6.32107-18.291,10.74225-26.93718a77.51231,77.51231,0,0,1,15.28128-20.54562c11.94952-11.50094,27.79641-19.3782,44.44315-20.62925,2.06818-.15543,4.1411-.20826,6.21462-.17209,3.2187.05615,3.21919-4.94384,0-5Z" transform="translate(-0.71191 -0.44549)"/><circle class="cls-2" cx="143.28809" cy="143" r="135"/></svg>