<svg id="svg_viewer_id" width="1573" height="1534" xmlns="http://www.w3.org/2000/svg" xmlns:xlink="http://www.w3.org/1999/xlink"><g transform="translate(631.2,293.45454545454544) scale(0.2483076923076923,0.2483076923076923)"><defs><marker id="_core"><path/></marker><marker id="_protein"><path/></marker><marker id="_metabolite"><path/></marker></defs><g><path id="_CS,_Citric_acid" class="link" stroke-width="10" d="M1505,2940A2250,2250 0 0,1 1725,3090" style="fill: none; stroke:rgb(243, 149, 118); visibility: visible; opacity: 1;"/><path id="_FBP1,_D_Glucose" class="link" stroke-width="10" d="M1180,-425A2250,2250 0 0,1 790,-920" style="fill: none; stroke:rgb(235, 126, 98); visibility: visible; opacity: 1;"/><path id="_PGAM2,_Oxaloacetic_acid" class="link" stroke-width="10" d="M855,1120A2250,2250 0 0,1 585,2690" style="fill: none; stroke:rgb(247, 172, 142); visibility: visible; opacity: 1;"/><path id="_TPI1,_D_Fructose_6_phosphate" class="link" stroke-width="10" d="M1270,65A2250,2250 0 0,1 870,-560" style="fill: none; stroke:rgb(240, 206, 187); visibility: visible; opacity: 1;"/><path id="_GAPDH,_Phosphoenolpyruvic_acid" class="link" stroke-width="10" d="M855,400A2250,2250 0 0,1 1005,1570" style="fill: none; stroke:rgb(222, 97, 77); visibility: visible; opacity: 1;"/><path id="_ALDOC,_Succinyl_coenzyme_A" class="link" stroke-width="10" d="M855,115A2250,2250 0 0,1 1030,3950" style="fill: none; stroke:rgb(243, 149, 118); visibility: visible; opacity: 1;"/><path id="_IDH2,_D_Fructose_16_bisphosphate" class="link" stroke-width="10" d="M1525,3390A2250,2250 0 0,1 1005,-200" style="fill: none; stroke:rgb(200, 56, 54); visibility: visible; opacity: 1;"/><path id="_ALDOC,_D_Glyceraldehyde_3_phosphate" class="link" stroke-width="10" d="M855,115A2250,2250 0 0,1 1005,235" style="fill: none; stroke:rgb(228, 110, 86); visibility: visible; opacity: 1;"/><path id="_IDH2,_Ketoglutaric_acid" class="link" stroke-width="10" d="M1525,3390A2250,2250 0 0,1 1595,3685" style="fill: none; stroke:rgb(180, 4, 38); visibility: visible; opacity: 1;"/><path id="_FBP2,_Acetyl_coenzyme_A" class="link" stroke-width="10" d="M1180,-325A2250,2250 0 0,1 1475,2720" style="fill: none; stroke:rgb(244, 152, 122); visibility: visible; opacity: 1;"/><path id="_PGAM1,_Oxaloacetic_acid" class="link" stroke-width="10" d="M855,1020A2250,2250 0 0,1 585,2690" style="fill: none; stroke:rgb(247, 172, 142); visibility: visible; opacity: 1;"/><path id="_PFKP,_Phosphoenolpyruvic_acid" class="link" stroke-width="10" d="M805,-325A2250,2250 0 0,1 1005,1570" style="fill: none; stroke:rgb(222, 97, 77); visibility: visible; opacity: 1;"/><path id="_ALDOB,_Succinic_acid" class="link" stroke-width="10" d="M855,15A2250,2250 0 0,1 445,3725" style="fill: none; stroke:rgb(184, 18, 42); visibility: visible; opacity: 1;"/><path id="_MDH2,_Oxaloacetic_acid" class="link" stroke-width="10" d="M305,2790A2250,2250 0 0,1 585,2690" style="fill: none; stroke:rgb(247, 172, 142); visibility: visible; opacity: 1;"/><path id="_GAPDH,_Pyruvate" class="link" stroke-width="10" d="M855,400A2250,2250 0 0,1 1005,2010" style="fill: none; stroke:rgb(245, 156, 125); visibility: visible; opacity: 1;"/><path id="_E2_PDH,_Citric_acid" class="link" stroke-width="10" d="M855,2360A2250,2250 0 0,1 1725,3090" style="fill: none; stroke:rgb(243, 149, 118); visibility: visible; opacity: 1;"/><path id="_FBP1,_Acetyl_coenzyme_A" class="link" stroke-width="10" d="M1180,-425A2250,2250 0 0,1 1475,2720" style="fill: none; stroke:rgb(244, 152, 122); visibility: visible; opacity: 1;"/><path id="_ENO1,_Succinyl_coenzyme_A" class="link" stroke-width="10" d="M855,1365A2250,2250 0 0,1 1030,3950" style="fill: none; stroke:rgb(243, 149, 118); visibility: visible; opacity: 1;"/><path id="_E2_PDH,_D_Glucose" class="link" stroke-width="10" d="M855,2360A2250,2250 0 0,1 790,-920" style="fill: none; stroke:rgb(235, 126, 98); visibility: visible; opacity: 1;"/><path id="_ALDOA,_Citric_acid" class="link" stroke-width="10" d="M855,-85A2250,2250 0 0,1 1725,3090" style="fill: none; stroke:rgb(243, 149, 118); visibility: visible; opacity: 1;"/><path id="_GCK,_Acetyl_coenzyme_A" class="link" stroke-width="10" d="M655,-755A2250,2250 0 0,1 1475,2720" style="fill: none; stroke:rgb(244, 152, 122); visibility: visible; opacity: 1;"/><path id="_GAPDH,_Oxaloacetic_acid" class="link" stroke-width="10" d="M855,400A2250,2250 0 0,1 585,2690" style="fill: none; stroke:rgb(247, 172, 142); visibility: visible; opacity: 1;"/><path id="_ALDOB,_Oxaloacetic_acid" class="link" stroke-width="10" d="M855,15A2250,2250 0 0,1 585,2690" style="fill: none; stroke:rgb(247, 172, 142); visibility: visible; opacity: 1;"/><path id="_FBP1,_Succinyl_coenzyme_A" class="link" stroke-width="10" d="M1180,-425A2250,2250 0 0,1 1030,3950" style="fill: none; stroke:rgb(243, 149, 118); visibility: visible; opacity: 1;"/><path id="_GPI,_Succinyl_coenzyme_A" class="link" stroke-width="10" d="M1145,-560A2250,2250 0 0,1 1030,3950" style="fill: none; stroke:rgb(243, 149, 118); visibility: visible; opacity: 1;"/><path id="_MDH2,_Phosphoenolpyruvic_acid" class="link" stroke-width="10" d="M305,2790A2250,2250 0 0,1 1005,1570" style="fill: none; stroke:rgb(222, 97, 77); visibility: visible; opacity: 1;"/><path id="_MDH2,_Pyruvate" class="link" stroke-width="10" d="M305,2790A2250,2250 0 0,1 1005,2010" style="fill: none; stroke:rgb(245, 156, 125); visibility: visible; opacity: 1;"/><path id="_PGK1,_Oxaloacetic_acid" class="link" stroke-width="10" d="M855,700A2250,2250 0 0,1 585,2690" style="fill: none; stroke:rgb(247, 172, 142); visibility: visible; opacity: 1;"/><path id="_PGAM2,_Pyruvate" class="link" stroke-width="10" d="M855,1120A2250,2250 0 0,1 1005,2010" style="fill: none; stroke:rgb(245, 156, 125); visibility: visible; opacity: 1;"/><path id="_E2_PDH,_O_Phospho_L_serine" class="link" stroke-width="10" d="M855,2360A2250,2250 0 0,1 2200,910" style="fill: none; stroke:rgb(220, 93, 74); visibility: visible; opacity: 1;"/><path id="_GAPDH,_Succinyl_coenzyme_A" class="link" stroke-width="10" d="M855,400A2250,2250 0 0,1 1030,3950" style="fill: none; stroke:rgb(243, 149, 118); visibility: visible; opacity: 1;"/><path id="_IDH3,_Succinic_acid" class="link" stroke-width="10" d="M1875,3440A2250,2250 0 0,1 445,3725" style="fill: none; stroke:rgb(184, 18, 42); visibility: visible; opacity: 1;"/><path id="_E2_PDH,_Succinic_acid" class="link" stroke-width="10" d="M855,2360A2250,2250 0 0,1 445,3725" style="fill: none; stroke:rgb(184, 18, 42); visibility: visible; opacity: 1;"/><path id="_IDH3,_L_Malic_acid" class="link" stroke-width="10" d="M1875,3440A2250,2250 0 0,1 325,3010" style="fill: none; stroke:rgb(233, 122, 95); visibility: visible; opacity: 1;"/><path id="_PKM1,_Acetyl_coenzyme_A" class="link" stroke-width="10" d="M855,1800A2250,2250 0 0,1 1475,2720" style="fill: none; stroke:rgb(244, 152, 122); visibility: visible; opacity: 1;"/><path id="_LDHA,_D_Fructose_16_bisphosphate" class="link" stroke-width="10" d="M1480,1910A2250,2250 0 0,1 1005,-200" style="fill: none; stroke:rgb(200, 56, 54); visibility: visible; opacity: 1;"/><path id="_E2_PDH,_Phosphoenolpyruvic_acid" class="link" stroke-width="10" d="M855,2360A2250,2250 0 0,1 1005,1570" style="fill: none; stroke:rgb(222, 97, 77); visibility: visible; opacity: 1;"/><path id="_PGK1,_Ketoglutaric_acid" class="link" stroke-width="10" d="M855,700A2250,2250 0 0,1 1595,3685" style="fill: none; stroke:rgb(180, 4, 38); visibility: visible; opacity: 1;"/><path id="_FH,_D_Fructose_16_bisphosphate" class="link" stroke-width="10" d="M155,3160A2250,2250 0 0,1 1005,-200" style="fill: none; stroke:rgb(200, 56, 54); visibility: visible; opacity: 1;"/><path id="_PGK1,_Citric_acid" class="link" stroke-width="10" d="M855,700A2250,2250 0 0,1 1725,3090" style="fill: none; stroke:rgb(243, 149, 118); visibility: visible; opacity: 1;"/><path id="_PKLR,_Phosphoenolpyruvic_acid" class="link" stroke-width="10" d="M855,1700A2250,2250 0 0,1 1005,1570" style="fill: none; stroke:rgb(222, 97, 77); visibility: visible; opacity: 1;"/><path id="_MDH2,_L_Serine" class="link" stroke-width="10" d="M305,2790A2250,2250 0 0,1 2200,1250" style="fill: none; stroke:rgb(209, 73, 62); visibility: visible; opacity: 1;"/><path id="_GCK,_Pyruvate" class="link" stroke-width="10" d="M655,-755A2250,2250 0 0,1 1005,2010" style="fill: none; stroke:rgb(245, 156, 125); visibility: visible; opacity: 1;"/><path id="_ALDOA,_Oxaloacetic_acid" class="link" stroke-width="10" d="M855,-85A2250,2250 0 0,1 585,2690" style="fill: none; stroke:rgb(247, 172, 142); visibility: visible; opacity: 1;"/><path id="_ALDOB,_D_Fructose_6_phosphate" class="link" stroke-width="10" d="M855,15A2250,2250 0 0,1 870,-560" style="fill: none; stroke:rgb(240, 206, 187); visibility: visible; opacity: 1;"/><path id="_PKM2,_D_Glucose" class="link" stroke-width="10" d="M855,1900A2250,2250 0 0,1 790,-920" style="fill: none; stroke:rgb(235, 126, 98); visibility: visible; opacity: 1;"/><path id="_PGK1,_Acetyl_coenzyme_A" class="link" stroke-width="10" d="M855,700A2250,2250 0 0,1 1475,2720" style="fill: none; stroke:rgb(244, 152, 122); visibility: visible; opacity: 1;"/><path id="_PGK1,_L_Malic_acid" class="link" stroke-width="10" d="M855,700A2250,2250 0 0,1 325,3010" style="fill: none; stroke:rgb(233, 122, 95); visibility: visible; opacity: 1;"/><path id="_MDH2,_D_Glyceraldehyde_3_phosphate" class="link" stroke-width="10" d="M305,2790A2250,2250 0 0,1 1005,235" style="fill: none; stroke:rgb(228, 110, 86); visibility: visible; opacity: 1;"/><path id="_E2_PDH,_Succinyl_coenzyme_A" class="link" stroke-width="10" d="M855,2360A2250,2250 0 0,1 1030,3950" style="fill: none; stroke:rgb(243, 149, 118); visibility: visible; opacity: 1;"/><path id="_GCK,_Oxaloacetic_acid" class="link" stroke-width="10" d="M655,-755A2250,2250 0 0,1 585,2690" style="fill: none; stroke:rgb(247, 172, 142); visibility: visible; opacity: 1;"/><path id="_FH,_Succinyl_coenzyme_A" class="link" stroke-width="10" d="M155,3160A2250,2250 0 0,1 1030,3950" style="fill: none; stroke:rgb(243, 149, 118); visibility: visible; opacity: 1;"/><path id="_IDH2,_D_Fructose_6_phosphate" class="link" stroke-width="10" d="M1525,3390A2250,2250 0 0,1 870,-560" style="fill: none; stroke:rgb(240, 206, 187); visibility: visible; opacity: 1;"/><path id="_PKM2,_L_Serine" class="link" stroke-width="10" d="M855,1900A2250,2250 0 0,1 2200,1250" style="fill: none; stroke:rgb(209, 73, 62); visibility: visible; opacity: 1;"/><path id="_ALDOB,_D_Fructose_16_bisphosphate" class="link" stroke-width="10" d="M855,15A2250,2250 0 0,1 1005,-200" style="fill: none; stroke:rgb(200, 56, 54); visibility: visible; opacity: 1;"/><path id="_LDHB,_Oxaloacetic_acid" class="link" stroke-width="10" d="M1580,1910A2250,2250 0 0,1 585,2690" style="fill: none; stroke:rgb(247, 172, 142); visibility: visible; opacity: 1;"/><path id="_E2_PDH,_D_3_Phosphoglyceric_acid" class="link" stroke-width="10" d="M855,2360A2250,2250 0 0,1 1005,910" style="fill: none; stroke:rgb(180, 4, 38); visibility: visible; opacity: 1;"/><path id="_IDH3,_D_Glucose" class="link" stroke-width="10" d="M1875,3440A2250,2250 0 0,1 790,-920" style="fill: none; stroke:rgb(235, 126, 98); visibility: visible; opacity: 1;"/><path id="_PGK1,_D_Glyceraldehyde_3_phosphate" class="link" stroke-width="10" d="M855,700A2250,2250 0 0,1 1005,235" style="fill: none; stroke:rgb(228, 110, 86); visibility: visible; opacity: 1;"/><path id="_GCK,_Phosphoenolpyruvic_acid" class="link" stroke-width="10" d="M655,-755A2250,2250 0 0,1 1005,1570" style="fill: none; stroke:rgb(222, 97, 77); visibility: visible; opacity: 1;"/><path id="_E3_PDH,_D_Glucose" class="link" stroke-width="10" d="M855,2460A2250,2250 0 0,1 790,-920" style="fill: none; stroke:rgb(235, 126, 98); visibility: visible; opacity: 1;"/><path id="_ALDOC,_Phosphoenolpyruvic_acid" class="link" stroke-width="10" d="M855,115A2250,2250 0 0,1 1005,1570" style="fill: none; stroke:rgb(222, 97, 77); visibility: visible; opacity: 1;"/><path id="_GPI,_D_Glyceraldehyde_3_phosphate" class="link" stroke-width="10" d="M1145,-560A2250,2250 0 0,1 1005,235" style="fill: none; stroke:rgb(228, 110, 86); visibility: visible; opacity: 1;"/><path id="_PGK1,_O_Phospho_L_serine" class="link" stroke-width="10" d="M855,700A2250,2250 0 0,1 2200,910" style="fill: none; stroke:rgb(220, 93, 74); visibility: visible; opacity: 1;"/><path id="_ALDOB,_Phosphoenolpyruvic_acid" class="link" stroke-width="10" d="M855,15A2250,2250 0 0,1 1005,1570" style="fill: none; stroke:rgb(222, 97, 77); visibility: visible; opacity: 1;"/><path id="_FH,_O_Phospho_L_serine" class="link" stroke-width="10" d="M155,3160A2250,2250 0 0,1 2200,910" style="fill: none; stroke:rgb(220, 93, 74); visibility: visible; opacity: 1;"/><path id="_HK1,_D_Glucose" class="link" stroke-width="10" d="M930,-755A2250,2250 0 0,1 790,-920" style="fill: none; stroke:rgb(235, 126, 98); visibility: visible; opacity: 1;"/><path id="_GPI,_D_Fructose_6_phosphate" class="link" stroke-width="10" d="M1145,-560A2250,2250 0 0,1 870,-560" style="fill: none; stroke:rgb(240, 206, 187); visibility: visible; opacity: 1;"/><path id="_MDH2,_Acetyl_coenzyme_A" class="link" stroke-width="10" d="M305,2790A2250,2250 0 0,1 1475,2720" style="fill: none; stroke:rgb(244, 152, 122); visibility: visible; opacity: 1;"/><path id="_LDHB,_Ketoglutaric_acid" class="link" stroke-width="10" d="M1580,1910A2250,2250 0 0,1 1595,3685" style="fill: none; stroke:rgb(180, 4, 38); visibility: visible; opacity: 1;"/><path id="_GCK,_Succinic_acid" class="link" stroke-width="10" d="M655,-755A2250,2250 0 0,1 445,3725" style="fill: none; stroke:rgb(184, 18, 42); visibility: visible; opacity: 1;"/><path id="_E2_PDH,_Pyruvate" class="link" stroke-width="10" d="M855,2360A2250,2250 0 0,1 1005,2010" style="fill: none; stroke:rgb(245, 156, 125); visibility: visible; opacity: 1;"/><path id="_PGK1,_D_Fructose_6_phosphate" class="link" stroke-width="10" d="M855,700A2250,2250 0 0,1 870,-560" style="fill: none; stroke:rgb(240, 206, 187); visibility: visible; opacity: 1;"/><path id="_PGK1,_D_Fructose_16_bisphosphate" class="link" stroke-width="10" d="M855,700A2250,2250 0 0,1 1005,-200" style="fill: none; stroke:rgb(200, 56, 54); visibility: visible; opacity: 1;"/><path id="_IDH3,_Ketoglutaric_acid" class="link" stroke-width="10" d="M1875,3440A2250,2250 0 0,1 1595,3685" style="fill: none; stroke:rgb(180, 4, 38); visibility: visible; opacity: 1;"/><path id="_E2_PDH,_L_Serine" class="link" stroke-width="10" d="M855,2360A2250,2250 0 0,1 2200,1250" style="fill: none; stroke:rgb(209, 73, 62); visibility: visible; opacity: 1;"/><path id="_ALDOA,_D_Glyceraldehyde_3_phosphate" class="link" stroke-width="10" d="M855,-85A2250,2250 0 0,1 1005,235" style="fill: none; stroke:rgb(228, 110, 86); visibility: visible; opacity: 1;"/><path id="_ENO1,_O_Phospho_L_serine" class="link" stroke-width="10" d="M855,1365A2250,2250 0 0,1 2200,910" style="fill: none; stroke:rgb(220, 93, 74); visibility: visible; opacity: 1;"/><path id="_ALDOA,_D_3_Phosphoglyceric_acid" class="link" stroke-width="10" d="M855,-85A2250,2250 0 0,1 1005,910" style="fill: none; stroke:rgb(180, 4, 38); visibility: visible; opacity: 1;"/><path id="_LDHA,_Oxaloacetic_acid" class="link" stroke-width="10" d="M1480,1910A2250,2250 0 0,1 585,2690" style="fill: none; stroke:rgb(247, 172, 142); visibility: visible; opacity: 1;"/><path id="_PHGDH,_Ketoglutaric_acid" class="link" stroke-width="10" d="M1330,800A2250,2250 0 0,1 1595,3685" style="fill: none; stroke:rgb(180, 4, 38); visibility: visible; opacity: 1;"/><path id="_MDH2,_Succinic_acid" class="link" stroke-width="10" d="M305,2790A2250,2250 0 0,1 445,3725" style="fill: none; stroke:rgb(184, 18, 42); visibility: visible; opacity: 1;"/><path id="_PGK1,_D_3_Phosphoglyceric_acid" class="link" stroke-width="10" d="M855,700A2250,2250 0 0,1 1005,910" style="fill: none; stroke:rgb(180, 4, 38); visibility: visible; opacity: 1;"/><path id="_PFKP,_D_Fructose_16_bisphosphate" class="link" stroke-width="10" d="M805,-325A2250,2250 0 0,1 1005,-200" style="fill: none; stroke:rgb(200, 56, 54); visibility: visible; opacity: 1;"/><path id="_FH,_L_Malic_acid" class="link" stroke-width="10" d="M155,3160A2250,2250 0 0,1 325,3010" style="fill: none; stroke:rgb(233, 122, 95); visibility: visible; opacity: 1;"/><path id="_MDH2,_D_Fructose_16_bisphosphate" class="link" stroke-width="10" d="M305,2790A2250,2250 0 0,1 1005,-200" style="fill: none; stroke:rgb(200, 56, 54); visibility: visible; opacity: 1;"/><path id="_PGK1,_Phosphoenolpyruvic_acid" class="link" stroke-width="10" d="M855,700A2250,2250 0 0,1 1005,1570" style="fill: none; stroke:rgb(222, 97, 77); visibility: visible; opacity: 1;"/><path id="_PGAM1,_Phosphoenolpyruvic_acid" class="link" stroke-width="10" d="M855,1020A2250,2250 0 0,1 1005,1570" style="fill: none; stroke:rgb(222, 97, 77); visibility: visible; opacity: 1;"/><path id="_CS,_Pyruvate" class="link" stroke-width="10" d="M1505,2940A2250,2250 0 0,1 1005,2010" style="fill: none; stroke:rgb(245, 156, 125); visibility: visible; opacity: 1;"/><path id="_ALDOB,_D_Glyceraldehyde_3_phosphate" class="link" stroke-width="10" d="M855,15A2250,2250 0 0,1 1005,235" style="fill: none; stroke:rgb(228, 110, 86); visibility: visible; opacity: 1;"/><path id="_ENO2,_O_Phospho_L_serine" class="link" stroke-width="10" d="M855,1465A2250,2250 0 0,1 2200,910" style="fill: none; stroke:rgb(220, 93, 74); visibility: visible; opacity: 1;"/><path id="_MDH2,_D_Fructose_6_phosphate" class="link" stroke-width="10" d="M305,2790A2250,2250 0 0,1 870,-560" style="fill: none; stroke:rgb(240, 206, 187); visibility: visible; opacity: 1;"/><path id="_PGAM2,_D_3_Phosphoglyceric_acid" class="link" stroke-width="10" d="M855,1120A2250,2250 0 0,1 1005,910" style="fill: none; stroke:rgb(180, 4, 38); visibility: visible; opacity: 1;"/><path id="_PGAM1,_D_3_Phosphoglyceric_acid" class="link" stroke-width="10" d="M855,1020A2250,2250 0 0,1 1005,910" style="fill: none; stroke:rgb(180, 4, 38); visibility: visible; opacity: 1;"/><path id="_ALDOA,_O_Phospho_L_serine" class="link" stroke-width="10" d="M855,-85A2250,2250 0 0,1 2200,910" style="fill: none; stroke:rgb(220, 93, 74); visibility: visible; opacity: 1;"/><path id="_PGAM2,_Phosphoenolpyruvic_acid" class="link" stroke-width="10" d="M855,1120A2250,2250 0 0,1 1005,1570" style="fill: none; stroke:rgb(222, 97, 77); visibility: visible; opacity: 1;"/></g><image id="background_image" xlink:href="data/img/20201218_MIDAS-CCM_pathway-no-proteins-no-metabolites.svg" height="4800" x="0" y="-850"/><g class="node" id="_ALDOA"><rect id="_ALDOA" transform="translate(855,-85)" fill="orange" stroke="black" stroke-width="5px" width="70px" height="70px" x="-35" y="-35" border-top-right-radius="25px" /><text id="_ALDOA" transform="translate(855,-85)"><tspan id="_ALDOA" x="-46px" y=".31em" style="font-size: 64px; font-weight: bold; text-anchor: end;">ALDOA</tspan></text></g><g class="node" id="_O_Phospho_L_serine" style="visibility: visible; opacity: 1;"><circle fill="#343d46" stroke="black" stroke-width="3px" r="24px" id="_O_Phospho_L_serine" transform="translate(2200,910)"/><text id="_O_Phospho_L_serine" transform="translate(2200,910)"><tspan id="_O_Phospho_L_serine" x="46px" y=".31em" style="font-size: 64px; font-weight: bold;">3-PS</tspan></text></g><g class="node" id="_D_3_Phosphoglyceric_acid" style="visibility: visible; opacity: 1;"><circle fill="#343d46" stroke="black" stroke-width="3px" r="24px" id="_D_3_Phosphoglyceric_acid" transform="translate(1005,910)"/><text id="_D_3_Phosphoglyceric_acid" transform="translate(1005,910)"><tspan id="_D_3_Phosphoglyceric_acid" x="-46px" y=".31em" style="font-size: 64px; font-weight: bold; text-anchor: end;">3PG</tspan></text></g><g class="node" id="_D_Glyceraldehyde_3_phosphate" style="visibility: visible; opacity: 1;"><circle fill="#343d46" stroke="black" stroke-width="3px" r="24px" id="_D_Glyceraldehyde_3_phosphate" transform="translate(1005,235)" style="fill: lightgrey;"/><text id="_D_Glyceraldehyde_3_phosphate" transform="translate(1005,235)"><tspan id="_D_Glyceraldehyde_3_phosphate" x="-56px" y=".31em" style="font-size: 64px; font-weight: bold; text-anchor: end;">G3P</tspan><tspan x="160px" y=".31em" style="font-size: 64px; font-weight: bold; text-anchor: end;">DHAP</tspan></text></g><g class="node" id="_Oxaloacetic_acid" style="visibility: visible; opacity: 1;"><circle fill="#343d46" stroke="black" stroke-width="3px" r="24px" id="_Oxaloacetic_acid" transform="translate(585,2690)"/><text id="_Oxaloacetic_acid" transform="translate(585,2690)"><tspan id="_Oxaloacetic_acid" x="-46px" y=".31em" style="font-size: 64px; font-weight: bold; text-anchor: end;">Oxaloacetate</tspan></text></g><g class="node" id="_Citric_acid" style="visibility: visible; opacity: 1;"><circle fill="#343d46" stroke="black" stroke-width="3px" r="24px" id="_Citric_acid" transform="translate(1725,3090)" style="fill: lightgrey;"/><text id="_Citric_acid" transform="translate(1725,3090)"><tspan id="_Citric_acid" x="-56px" y=".31em" style="font-size: 64px; font-weight: bold; text-anchor: end;">Citrate</tspan><tspan x="200px" y=".31em" style="font-size: 64px; font-weight: bold; text-anchor: end;">Isocitrate</tspan></text></g><g class="node" id="_ALDOB"><rect id="_ALDOB" transform="translate(855,15)" fill="orange" stroke="black" stroke-width="5px" width="70px" height="70px" x="-35" y="-35" border-top-right-radius="25px" /><text id="_ALDOB" transform="translate(855,15)"><tspan id="_ALDOB" x="-46px" y=".31em" style="font-size: 64px; font-weight: bold; text-anchor: end;">ALDOB</tspan></text></g><g class="node" id="_Phosphoenolpyruvic_acid" style="visibility: visible; opacity: 1;"><circle fill="#343d46" stroke="black" stroke-width="3px" r="24px" id="_Phosphoenolpyruvic_acid" transform="translate(1005,1570)"/><text id="_Phosphoenolpyruvic_acid" transform="translate(1005,1570)"><tspan id="_Phosphoenolpyruvic_acid" x="-46px" y=".31em" style="font-size: 64px; font-weight: bold; text-anchor: end;">PEP</tspan></text></g><g class="node" id="_D_Fructose_16_bisphosphate" style="visibility: visible; opacity: 1;"><circle fill="#343d46" stroke="black" stroke-width="3px" r="24px" id="_D_Fructose_16_bisphosphate" transform="translate(1005,-200)" style="fill: lightgrey;"/><text id="_D_Fructose_16_bisphosphate" transform="translate(1005,-200)"><tspan id="_D_Fructose_16_bisphosphate" x="-46px" y=".31em" style="font-size: 64px; font-weight: bold; text-anchor: end;">F1,6BP</tspan></text></g><g class="node" id="_D_Fructose_6_phosphate" style="visibility: visible; opacity: 1;"><circle fill="#343d46" stroke="black" stroke-width="3px" r="24px" id="_D_Fructose_6_phosphate" transform="translate(870,-560)" style="fill: lightgrey;"/><text id="_D_Fructose_6_phosphate" transform="translate(870,-560)"><tspan id="_D_Fructose_6_phosphate" x="-56px" y=".31em" style="font-size: 64px; font-weight: bold; text-anchor: end;">G6P</tspan><tspan x="100px" y=".31em" style="font-size: 64px; font-weight: bold; text-anchor: end;">F6P</tspan></text></g><g class="node" id="_Succinic_acid" style="visibility: visible; opacity: 1;"><circle fill="#343d46" stroke="black" stroke-width="3px" r="24px" id="_Succinic_acid" transform="translate(445,3725)" style="fill: lightgrey;"/><text id="_Succinic_acid" transform="translate(445,3725)"><tspan id="_Succinic_acid" x="-46px" y=".31em" style="font-size: 64px; font-weight: bold; text-anchor: end;">Succinate</tspan></text></g><g class="node" id="_ALDOC"><rect id="_ALDOC" transform="translate(855,115)" fill="orange" stroke="black" stroke-width="5px" width="70px" height="70px" x="-35" y="-35" border-top-right-radius="25px" /><text id="_ALDOC" transform="translate(855,115)"><tspan id="_ALDOC" x="-46px" y=".31em" style="font-size: 64px; font-weight: bold; text-anchor: end;">ALDOC</tspan></text></g><g class="node" id="_Succinyl_coenzyme_A" style="visibility: visible; opacity: 1;"><circle fill="#343d46" stroke="black" stroke-width="3px" r="24px" id="_Succinyl_coenzyme_A" transform="translate(1030,3950)"/><text id="_Succinyl_coenzyme_A" transform="translate(1030,3950)"><tspan id="_Succinyl_coenzyme_A" x="46px" y=".31em" style="font-size: 64px; font-weight: bold;">Succinyl CoA</tspan></text></g><g class="node" id="_CS"><rect id="_CS" transform="translate(1505,2940)" fill="orange" stroke="black" stroke-width="5px" width="70px" height="70px" x="-35" y="-35" border-top-right-radius="25px" /><text id="_CS" transform="translate(1505,2940)"><tspan id="_CS" x="-46px" y=".31em" style="font-size: 64px; font-weight: bold; text-anchor: end;">CS</tspan></text></g><g class="node" id="_Pyruvate" style="visibility: visible; opacity: 1;"><circle fill="#343d46" stroke="black" stroke-width="3px" r="24px" id="_Pyruvate" transform="translate(1005,2010)"/><text id="_Pyruvate" transform="translate(1005,2010)"><tspan id="_Pyruvate" x="-46px" y=".31em" style="font-size: 64px; font-weight: bold; text-anchor: end;">Pyruvate</tspan></text></g><g class="node" id="_E1_PDH"><rect id="_E1_PDH" transform="translate(855,2260)" fill="orange" stroke="black" stroke-width="5px" width="70px" height="70px" x="-35" y="-35" border-top-right-radius="25px" /><text id="_E1_PDH" transform="translate(855,2260)"><tspan id="_E1_PDH" x="-46px" y=".31em" style="font-size: 64px; font-weight: bold; text-anchor: end;">E1-PDH</tspan></text></g><g class="node" id="_E2_PDH"><rect id="_E2_PDH" transform="translate(855,2360)" fill="orange" stroke="black" stroke-width="5px" width="70px" height="70px" x="-35" y="-35" border-top-right-radius="25px" /><text id="_E2_PDH" transform="translate(855,2360)"><tspan id="_E2_PDH" x="-46px" y=".31em" style="font-size: 64px; font-weight: bold; text-anchor: end;">E2-PDH</tspan></text></g><g class="node" id="_L_Serine" style="visibility: visible; opacity: 1;"><circle fill="#343d46" stroke="black" stroke-width="3px" r="24px" id="_L_Serine" transform="translate(2200,1250)" style="fill: lightgrey;"/><text id="_L_Serine" transform="translate(2200,1250)"><tspan id="_L_Serine" x="46px" y=".31em" style="font-size: 64px; font-weight: bold;">Serine</tspan></text></g><g class="node" id="_D_Glucose" style="visibility: visible; opacity: 1;"><circle fill="#343d46" stroke="black" stroke-width="3px" r="24px" id="_D_Glucose" transform="translate(790,-920)" style="fill: lightgrey;"/><text id="_D_Glucose" transform="translate(790,-920)"><tspan id="_D_Glucose" x="-46px" y=".31em" style="font-size: 64px; font-weight: bold; text-anchor: end;">Glucose</tspan></text></g><g class="node" id="_E3_PDH"><rect id="_E3_PDH" transform="translate(855,2460)" fill="orange" stroke="black" stroke-width="5px" width="70px" height="70px" x="-35" y="-35" border-top-right-radius="25px" /><text id="_E3_PDH" transform="translate(855,2460)"><tspan id="_E3_PDH" x="-46px" y=".31em" style="font-size: 64px; font-weight: bold; text-anchor: end;">E3-PDH</tspan></text></g><g class="node" id="_ENO1"><rect id="_ENO1" transform="translate(855,1365)" fill="orange" stroke="black" stroke-width="5px" width="70px" height="70px" x="-35" y="-35" border-top-right-radius="25px" /><text id="_ENO1" transform="translate(855,1365)"><tspan id="_ENO1" x="-46px" y=".31em" style="font-size: 64px; font-weight: bold; text-anchor: end;">ENO1</tspan></text></g><g class="node" id="_ENO2"><rect id="_ENO2" transform="translate(855,1465)" fill="orange" stroke="black" stroke-width="5px" width="70px" height="70px" x="-35" y="-35" border-top-right-radius="25px" /><text id="_ENO2" transform="translate(855,1465)"><tspan id="_ENO2" x="-46px" y=".31em" style="font-size: 64px; font-weight: bold; text-anchor: end;">ENO2</tspan></text></g><g class="node" id="_FBP1"><rect id="_FBP1" transform="translate(1180,-425)" fill="orange" stroke="black" stroke-width="5px" width="70px" height="70px" x="-35" y="-35" border-top-right-radius="25px" /><text id="_FBP1" transform="translate(1180,-425)"><tspan id="_FBP1" x="46px" y=".31em" style="font-size: 64px; font-weight: bold;">FBP1</tspan></text></g><g class="node" id="_Acetyl_coenzyme_A" style="visibility: visible; opacity: 1;"><circle fill="#343d46" stroke="black" stroke-width="3px" r="24px" id="_Acetyl_coenzyme_A" transform="translate(1475,2720)"/><text id="_Acetyl_coenzyme_A" transform="translate(1475,2720)"><tspan id="_Acetyl_coenzyme_A" x="46px" y=".31em" style="font-size: 64px; font-weight: bold;">Acetyl CoA</tspan></text></g><g class="node" id="_FBP2"><rect id="_FBP2" transform="translate(1180,-325)" fill="orange" stroke="black" stroke-width="5px" width="70px" height="70px" x="-35" y="-35" border-top-right-radius="25px" /><text id="_FBP2" transform="translate(1180,-325)"><tspan id="_FBP2" x="46px" y=".31em" style="font-size: 64px; font-weight: bold;">FBP2</tspan></text></g><g class="node" id="_FH"><rect id="_FH" transform="translate(155,3160)" fill="orange" stroke="black" stroke-width="5px" width="70px" height="70px" x="-35" y="-35" border-top-right-radius="25px" /><text id="_FH" transform="translate(155,3160)"><tspan id="_FH" x="-46px" y=".31em" style="font-size: 64px; font-weight: bold; text-anchor: end;">FH</tspan></text></g><g class="node" id="_L_Malic_acid" style="visibility: visible; opacity: 1;"><circle fill="#343d46" stroke="black" stroke-width="3px" r="24px" id="_L_Malic_acid" transform="translate(325,3010)"/><text id="_L_Malic_acid" transform="translate(325,3010)"><tspan id="_L_Malic_acid" x="-46px" y=".31em" style="font-size: 64px; font-weight: bold; text-anchor: end;">Malate</tspan></text></g><g class="node" id="_GAPDH"><rect id="_GAPDH" transform="translate(855,400)" fill="orange" stroke="black" stroke-width="5px" width="70px" height="70px" x="-35" y="-35" border-top-right-radius="25px" /><text id="_GAPDH" transform="translate(855,400)"><tspan id="_GAPDH" x="-46px" y=".31em" style="font-size: 64px; font-weight: bold; text-anchor: end;">GAPDH</tspan></text></g><g class="node" id="_GCK"><rect id="_GCK" transform="translate(655,-755)" fill="orange" stroke="black" stroke-width="5px" width="70px" height="70px" x="-35" y="-35" border-top-right-radius="25px" /><text id="_GCK" transform="translate(655,-755)"><tspan id="_GCK" x="-46px" y=".31em" style="font-size: 64px; font-weight: bold; text-anchor: end;">GCK</tspan></text></g><g class="node" id="_GPI"><rect id="_GPI" transform="translate(1145,-560)" fill="orange" stroke="black" stroke-width="5px" width="70px" height="70px" x="-35" y="-35" border-top-right-radius="25px" /><text id="_GPI" transform="translate(1145,-560)"><tspan id="_GPI" x="46px" y=".31em" style="font-size: 64px; font-weight: bold;">GPI</tspan></text></g><g class="node" id="_HK1"><rect id="_HK1" transform="translate(930,-755)" fill="orange" stroke="black" stroke-width="5px" width="70px" height="70px" x="-35" y="-35" border-top-right-radius="25px" /><text id="_HK1" transform="translate(930,-755)"><tspan id="_HK1" x="46px" y=".31em" style="font-size: 64px; font-weight: bold;">HK1</tspan></text></g><g class="node" id="_IDH2"><rect id="_IDH2" transform="translate(1525,3390)" fill="orange" stroke="black" stroke-width="5px" width="70px" height="70px" x="-35" y="-35" border-top-right-radius="25px" /><text id="_IDH2" transform="translate(1525,3390)"><tspan id="_IDH2" x="-46px" y=".31em" style="font-size: 64px; font-weight: bold; text-anchor: end;">IDH2</tspan></text></g><g class="node" id="_Ketoglutaric_acid" style="visibility: visible; opacity: 1;"><circle fill="#343d46" stroke="black" stroke-width="3px" r="24px" id="_Ketoglutaric_acid" transform="translate(1595,3685)"/><text id="_Ketoglutaric_acid" transform="translate(1595,3685)"><tspan id="_Ketoglutaric_acid" x="46px" y=".31em" style="font-size: 64px; font-weight: bold;">α-ketoglutarate</tspan></text></g><g class="node" id="_IDH3"><rect id="_IDH3" transform="translate(1875,3440)" fill="orange" stroke="black" stroke-width="5px" width="70px" height="70px" x="-35" y="-35" border-top-right-radius="25px" /><text id="_IDH3" transform="translate(1875,3440)"><tspan id="_IDH3" x="46px" y=".31em" style="font-size: 64px; font-weight: bold;">IDH3</tspan></text></g><g class="node" id="_LDHA"><rect id="_LDHA" transform="translate(1480,1910)" fill="orange" stroke="black" stroke-width="5px" width="70px" height="70px" x="-35" y="-35" border-top-right-radius="25px" /><text id="_LDHA" transform="translate(1480,1910)"><tspan id="_LDHA" x="-46px" y=".31em" style="font-size: 64px; font-weight: bold; text-anchor: end;">LDHA</tspan></text></g><g class="node" id="_LDHB"><rect id="_LDHB" transform="translate(1580,1910)" fill="orange" stroke="black" stroke-width="5px" width="70px" height="70px" x="-35" y="-35" border-top-right-radius="25px" /><text id="_LDHB" transform="translate(1580,1910)"><tspan id="_LDHB" x="46px" y=".31em" style="font-size: 64px; font-weight: bold;">LDHB</tspan></text></g><g class="node" id="_MDH2"><rect id="_MDH2" transform="translate(305,2790)" fill="orange" stroke="black" stroke-width="5px" width="70px" height="70px" x="-35" y="-35" border-top-right-radius="25px" /><text id="_MDH2" transform="translate(305,2790)"><tspan id="_MDH2" x="-46px" y=".31em" style="font-size: 64px; font-weight: bold; text-anchor: end;">MDH2</tspan></text></g><g class="node" id="_PFKL"><rect id="_PFKL" transform="translate(805,-425)" fill="orange" stroke="black" stroke-width="5px" width="70px" height="70px" x="-35" y="-35" border-top-right-radius="25px" /><text id="_PFKL" transform="translate(805,-425)"><tspan id="_PFKL" x="-46px" y=".31em" style="font-size: 64px; font-weight: bold; text-anchor: end;">PFKL</tspan></text></g><g class="node" id="_PFKP"><rect id="_PFKP" transform="translate(805,-325)" fill="orange" stroke="black" stroke-width="5px" width="70px" height="70px" x="-35" y="-35" border-top-right-radius="25px" /><text id="_PFKP" transform="translate(805,-325)"><tspan id="_PFKP" x="-46px" y=".31em" style="font-size: 64px; font-weight: bold; text-anchor: end;">PFKP</tspan></text></g><g class="node" id="_PGAM1"><rect id="_PGAM1" transform="translate(855,1020)" fill="orange" stroke="black" stroke-width="5px" width="70px" height="70px" x="-35" y="-35" border-top-right-radius="25px" /><text id="_PGAM1" transform="translate(855,1020)"><tspan id="_PGAM1" x="-46px" y=".31em" style="font-size: 64px; font-weight: bold; text-anchor: end;">PGAM1</tspan></text></g><g class="node" id="_PGAM2"><rect id="_PGAM2" transform="translate(855,1120)" fill="orange" stroke="black" stroke-width="5px" width="70px" height="70px" x="-35" y="-35" border-top-right-radius="25px" /><text id="_PGAM2" transform="translate(855,1120)"><tspan id="_PGAM2" x="-46px" y=".31em" style="font-size: 64px; font-weight: bold; text-anchor: end;">PGAM2</tspan></text></g><g class="node" id="_PGK1"><rect id="_PGK1" transform="translate(855,700)" fill="orange" stroke="black" stroke-width="5px" width="70px" height="70px" x="-35" y="-35" border-top-right-radius="25px" /><text id="_PGK1" transform="translate(855,700)"><tspan id="_PGK1" x="-46px" y=".31em" style="font-size: 64px; font-weight: bold; text-anchor: end;">PGK1</tspan></text></g><g class="node" id="_PGK2"><rect id="_PGK2" transform="translate(855,800)" fill="orange" stroke="black" stroke-width="5px" width="70px" height="70px" x="-35" y="-35" border-top-right-radius="25px" /><text id="_PGK2" transform="translate(855,800)"><tspan id="_PGK2" x="-46px" y=".31em" style="font-size: 64px; font-weight: bold; text-anchor: end;">PGK2</tspan></text></g><g class="node" id="_PHGDH"><rect id="_PHGDH" transform="translate(1330,800)" fill="orange" stroke="black" stroke-width="5px" width="70px" height="70px" x="-35" y="-35" border-top-right-radius="25px" /><text id="_PHGDH" transform="translate(1330,800)"><tspan id="_PHGDH" x="46px" y=".31em" style="font-size: 64px; font-weight: bold;">PHGDH</tspan></text></g><g class="node" id="_PKLR"><rect id="_PKLR" transform="translate(855,1700)" fill="orange" stroke="black" stroke-width="5px" width="70px" height="70px" x="-35" y="-35" border-top-right-radius="25px" /><text id="_PKLR" transform="translate(855,1700)"><tspan id="_PKLR" x="-46px" y=".31em" style="font-size: 64px; font-weight: bold; text-anchor: end;">PKLR</tspan></text></g><g class="node" id="_PKM1"><rect id="_PKM1" transform="translate(855,1800)" fill="orange" stroke="black" stroke-width="5px" width="70px" height="70px" x="-35" y="-35" border-top-right-radius="25px" /><text id="_PKM1" transform="translate(855,1800)"><tspan id="_PKM1" x="-46px" y=".31em" style="font-size: 64px; font-weight: bold; text-anchor: end;">PKM1</tspan></text></g><g class="node" id="_PKM2"><rect id="_PKM2" transform="translate(855,1900)" fill="orange" stroke="black" stroke-width="5px" width="70px" height="70px" x="-35" y="-35" border-top-right-radius="25px" /><text id="_PKM2" transform="translate(855,1900)"><tspan id="_PKM2" x="-46px" y=".31em" style="font-size: 64px; font-weight: bold; text-anchor: end;">PKM2</tspan></text></g><g class="node" id="_PSAT1"><rect id="_PSAT1" transform="translate(1930,800)" fill="orange" stroke="black" stroke-width="5px" width="70px" height="70px" x="-35" y="-35" border-top-right-radius="25px" /><text id="_PSAT1" transform="translate(1930,800)"><tspan id="_PSAT1" x="46px" y=".31em" style="font-size: 64px; font-weight: bold;">PSAT1</tspan></text></g><g class="node" id="_TPI1"><rect id="_TPI1" transform="translate(1270,65)" fill="orange" stroke="black" stroke-width="5px" width="70px" height="70px" x="-35" y="-35" border-top-right-radius="25px" /><text id="_TPI1" transform="translate(1270,65)"><tspan id="_TPI1" x="46px" y=".31em" style="font-size: 64px; font-weight: bold;">TPI1</tspan></text></g><g class="node" id="_13_BPG" style="visibility: visible; opacity: 1;"><circle fill="#343d46" stroke="black" stroke-width="3px" r="24px" id="_13_BPG" transform="translate(1005,560)" style="fill: white;"/><text id="_13_BPG" transform="translate(1005,560)"><tspan id="_13_BPG" x="-46px" y=".31em" style="font-size: 64px; font-weight: bold; text-anchor: end;">1,3-BPG</tspan></text></g><g class="node" id="_2PG" style="visibility: visible; opacity: 1;"><circle fill="#343d46" stroke="black" stroke-width="3px" r="24px" id="_2PG" transform="translate(1005,1245)" style="fill: white;"/><text id="_2PG" transform="translate(1005,1245)"><tspan id="_2PG" x="-46px" y=".31em" style="font-size: 64px; font-weight: bold; text-anchor: end;">2PG</tspan></text></g><g class="node" id="_3_PHP" style="visibility: visible; opacity: 1;"><circle fill="#343d46" stroke="black" stroke-width="3px" r="24px" id="_3_PHP" transform="translate(1635,910)" style="fill: white;"/><text id="_3_PHP" transform="translate(1635,910)"><tspan id="_3_PHP" x="15px" y="1.5em" style="font-size: 64px; font-weight: bold;">3-PHP</tspan></text></g><g class="node" id="_Lactate" style="visibility: visible; opacity: 1;"><circle fill="#343d46" stroke="black" stroke-width="3px" r="24px" id="_Lactate" transform="translate(1970,2010)" style="fill: white;"/><text id="_Lactate" transform="translate(1970,2010)"><tspan id="_Lactate" x="46px" y=".31em" style="font-size: 64px; font-weight: bold;">Lactate</tspan></text></g><g class="node" id="_Fumarate" style="visibility: visible; opacity: 1;"><circle fill="#343d46" stroke="black" stroke-width="3px" r="24px" id="_Fumarate" transform="translate(290,3350)" style="fill: white;"/><text id="_Fumarate" transform="translate(290,3350)"><tspan id="_Fumarate" x="-46px" y=".31em" style="font-size: 64px; font-weight: bold; text-anchor: end;">Fumarate</tspan></text></g></g></svg>